<?xml version="1.0" encoding="UTF-8" standalone="no"?>
<!-- Created with Inkscape (http://www.inkscape.org/) -->

<svg
   xmlns:osb="http://www.openswatchbook.org/uri/2009/osb"
   xmlns:dc="http://purl.org/dc/elements/1.1/"
   xmlns:cc="http://creativecommons.org/ns#"
   xmlns:rdf="http://www.w3.org/1999/02/22-rdf-syntax-ns#"
   xmlns:svg="http://www.w3.org/2000/svg"
   xmlns="http://www.w3.org/2000/svg"
   xmlns:xlink="http://www.w3.org/1999/xlink"
   xmlns:sodipodi="http://sodipodi.sourceforge.net/DTD/sodipodi-0.dtd"
   xmlns:inkscape="http://www.inkscape.org/namespaces/inkscape"
   width="210mm"
   height="297mm"
   viewBox="0 0 210 297"
   version="1.1"
   id="svg8"
   inkscape:version="0.92.0 r15299"
   sodipodi:docname="slime.svg">
  <defs
     id="defs2">
    <linearGradient
       inkscape:collect="always"
       id="linearGradient6392">
      <stop
         style="stop-color:#1a1a1a;stop-opacity:1;"
         offset="0"
         id="stop6388" />
      <stop
         style="stop-color:#ff1a1a;stop-opacity:0"
         offset="1"
         id="stop6390" />
    </linearGradient>
    <linearGradient
       inkscape:collect="always"
       id="linearGradient4910"
       osb:paint="gradient">
      <stop
         style="stop-color:#000000;stop-opacity:1;"
         offset="0"
         id="stop4906" />
      <stop
         style="stop-color:#1a1a1a;stop-opacity:0;"
         offset="1"
         id="stop4908" />
    </linearGradient>
    <inkscape:perspective
       sodipodi:type="inkscape:persp3d"
       inkscape:vp_x="0 : 148.5 : 1"
       inkscape:vp_y="0 : 1000 : 0"
       inkscape:vp_z="210 : 148.5 : 1"
       inkscape:persp3d-origin="105 : 99 : 1"
       id="perspective4541" />
    <linearGradient
       inkscape:collect="always"
       xlink:href="#linearGradient6392"
       id="linearGradient6394"
       x1="60.743146"
       y1="212.58366"
       x2="60.776188"
       y2="213.62309"
       gradientUnits="userSpaceOnUse" />
  </defs>
  <sodipodi:namedview
     id="base"
     pagecolor="#ffffff"
     bordercolor="#666666"
     borderopacity="1.0"
     inkscape:pageopacity="0.0"
     inkscape:pageshadow="2"
     inkscape:zoom="1.4"
     inkscape:cx="308.41132"
     inkscape:cy="286.32193"
     inkscape:document-units="mm"
     inkscape:current-layer="layer1"
     showgrid="false"
     inkscape:window-width="1440"
     inkscape:window-height="837"
     inkscape:window-x="-8"
     inkscape:window-y="-8"
     inkscape:window-maximized="1" />
  <metadata
     id="metadata5">
    <rdf:RDF>
      <cc:Work
         rdf:about="">
        <dc:format>image/svg+xml</dc:format>
        <dc:type
           rdf:resource="http://purl.org/dc/dcmitype/StillImage" />
        <dc:title></dc:title>
      </cc:Work>
    </rdf:RDF>
  </metadata>
  <g
     inkscape:label="Layer 1"
     inkscape:groupmode="layer"
     id="layer1">
    <path
       style="fill:#00ff00;stroke:#000000;stroke-width:1.26499999;stroke-linecap:butt;stroke-linejoin:miter;stroke-miterlimit:4;stroke-dasharray:none;stroke-opacity:1"
       d="m 40.065477,193.05654 c -0.03903,-0.56252 2.894084,-0.31311 3.023809,-0.37797 0.159369,-0.0797 0.218607,-0.29829 0.377976,-0.37798 0.244205,-0.1221 1.645677,0.1221 1.889882,0 0.159366,-0.0797 0.229722,-0.27914 0.377975,-0.37798 0.431972,-0.28798 1.450827,-0.66814 1.88988,-0.75595 0.598384,-0.11968 1.702027,0.14146 2.267857,0 0.273317,-0.0683 0.479698,-0.32272 0.755954,-0.37797 0.370637,-0.0741 0.755952,0 1.133928,0 0.377976,0 0.755951,0 1.133927,0 0.377979,0 0.761095,0.0621 1.13393,0 0.786001,-0.13101 1.481855,-0.62496 2.267858,-0.75596 0.372832,-0.0621 0.755951,0 1.133927,0 1.13393,0 2.267858,0 3.401785,0 0.377978,0 0.755954,0 1.13393,0 0.377976,0 0.759751,0.0535 1.133928,0 0.514257,-0.0735 0.997648,-0.30451 1.511905,-0.37797 0.374177,-0.0535 0.755952,0 1.133928,0 0.503968,0 1.007938,0 1.511906,0 1.133927,0 2.267857,0 3.401785,0 3.779763,0 7.559524,0 11.339284,0 5.417659,0 10.83532,0 16.252979,0 1.76389,0 3.52777,0 5.29166,0 0.62996,0 1.25992,0 1.88988,0 0.25198,0 0.51149,-0.0611 0.75595,0 0.27332,0.0683 0.48869,0.28888 0.75596,0.37797 0.23723,0.0791 1.20762,0 1.5119,0 1.13393,0 2.26786,0 3.40179,0 3.40178,0 6.80357,0 10.20535,0 1.00794,0 2.01588,0 3.02381,0 0.17023,0 1.0189,-0.0575 1.13393,0 1.57305,0.78653 -0.40407,-0.0261 0.37798,0.75596 0.0891,0.0891 0.28888,-0.0891 0.37797,0 0.0891,0.0891 -0.0891,0.28888 0,0.37797 0.0891,0.0891 0.28889,-0.0891 0.37798,0 0.0891,0.0891 0,0.25199 0,0.37798 0,0.62996 0,1.25992 0,1.88988 0,0.12599 0,0.25198 0,0.37797 0,0.126 0.0891,0.28889 0,0.37798 -0.0891,0.0891 -0.28889,-0.0891 -0.37798,0 -0.10342,0.10342 0.10253,1.30686 0,1.51191 -0.0797,0.15937 -0.29829,0.2186 -0.37797,0.37797 -0.0575,0.11503 0,0.96371 0,1.13393 0,0.75595 0,1.51191 0,2.26786 0,2.01587 0,4.03174 0,6.04762 0,0.0917 -0.0121,1.12177 0,1.13393 0.0891,0.0891 0.28888,-0.0891 0.37797,0 0.18899,0.18898 -0.18898,0.94494 0,1.13392 0.0891,0.0891 0.28889,-0.0891 0.37798,0 0.0891,0.0891 0,0.25199 0,0.37798 0,0.62996 0,1.25992 0,1.88988 0,0.12599 -0.0891,0.28889 0,0.37798 0.0891,0.0891 0.28889,-0.0891 0.37798,0 0.11704,0.11704 -0.11704,1.77284 0,1.88988 0.0891,0.0891 0.28888,-0.0891 0.37797,0 0.0773,0.0773 -0.0749,0.98406 0,1.13393 0.0797,0.15936 0.29829,0.2186 0.37798,0.37797 0.15119,0.30238 -0.15119,0.83155 0,1.13393 0.0797,0.15937 0.29829,0.21861 0.37797,0.37798 0.0563,0.11269 0,0.25198 0,0.37797 0.126,0.126 0.2983,0.21861 0.37798,0.37798 0.0749,0.14986 -0.0773,1.05666 0,1.13393 0.0891,0.0891 0.28889,-0.0891 0.37798,0 0.10342,0.10342 -0.10253,1.30685 0,1.5119 0.0797,0.15937 0.29829,0.21861 0.37797,0.37798 0.20119,0.40238 -0.20118,0.35358 0,0.75595 0.0797,0.15937 0.2983,0.21861 0.37798,0.37798 0.11269,0.22538 -0.17818,0.57777 0,0.75595 0.0891,0.0891 0.28889,-0.0891 0.37798,0 0.0891,0.0891 0,0.25199 0,0.37798 0,0.26289 -0.0684,1.75319 0,1.88988 0.0797,0.15937 0.29829,0.21861 0.37797,0.37797 0.0575,0.11504 0,0.96371 0,1.13393 0,0.75595 0,1.51191 0,2.26786 0,2.01587 0,4.03174 0,6.04762 0,0.1388 0.0152,1.49669 0,1.5119 -0.17818,0.17818 -0.57777,-0.17818 -0.75595,0 -0.0891,0.0891 0,0.25199 0,0.37798 0,0.12599 0,0.25198 0,0.37798 0,1.38591 0,2.77182 0,4.15773 0,0.2629 0.0683,1.75319 0,1.88988 -0.0797,0.15937 -0.29829,0.21861 -0.37798,0.37798 -0.11269,0.22538 0.11269,0.53057 0,0.75595 -0.0797,0.15937 -0.29829,0.21861 -0.37797,0.37798 -0.10253,0.20505 0.10342,1.40848 0,1.5119 -0.0891,0.0891 -0.28889,-0.0891 -0.37798,0 -0.13268,0.13268 0.13054,1.6288 0,1.88988 -0.0797,0.15937 -0.29829,0.21861 -0.37798,0.37798 -0.0749,0.14987 0.0773,1.05666 0,1.13393 -0.0891,0.0891 -0.28888,-0.0891 -0.37797,0 -0.17818,0.17818 0.17818,0.57777 0,0.75595 -0.0891,0.0891 -0.28889,-0.0891 -0.37798,0 -0.0891,0.0891 0.0891,0.28889 0,0.37798 -0.0891,0.0891 -0.28889,-0.0891 -0.37797,0 -0.0891,0.0891 0.0891,0.28888 0,0.37797 -0.78205,0.78205 0.0306,-1.19507 -0.75596,0.37798 -0.0563,0.11269 0.0891,0.28889 0,0.37798 -0.0891,0.0891 -0.28888,-0.0891 -0.37797,0 -0.0891,0.0891 0.0891,0.28888 0,0.37797 -0.17818,0.17818 -0.57777,-0.17818 -0.75595,0 -0.0891,0.0891 0.0891,0.28889 0,0.37798 -0.0773,0.0773 -0.98407,-0.0749 -1.13393,0 -0.15937,0.0797 -0.21861,0.29829 -0.37798,0.37798 -0.0977,0.0489 -1.99995,0 -2.26786,0 -1.76389,0 -3.52778,0 -5.29166,0 -0.62996,0 -1.25992,0 -1.88988,0 -0.126,0 -0.28889,-0.0891 -0.37798,0 -0.0891,0.0891 0.0891,0.28888 0,0.37797 -0.17818,0.17818 -0.53057,-0.11269 -0.75595,0 -0.15937,0.0797 -0.21861,0.29829 -0.37798,0.37798 -0.22538,0.11269 -0.57777,-0.17818 -0.75595,0 -0.0891,0.0891 0.11269,0.32163 0,0.37797 -0.22538,0.11269 -0.50397,0 -0.75595,0 -0.12599,0 -0.28889,-0.0891 -0.37798,0 -0.78205,0.78205 1.19507,-0.0306 -0.37798,0.75596 -0.22538,0.11269 -0.53057,-0.11269 -0.75595,0 -0.15937,0.0797 -0.21861,0.29829 -0.37797,0.37797 -0.22539,0.11269 -0.57778,-0.17818 -0.75596,0 -0.0891,0.0891 0.0891,0.28889 0,0.37798 -0.0891,0.0891 -0.25845,-0.0398 -0.37797,0 -0.26727,0.0891 -0.52154,0.2217 -0.75596,0.37797 -0.14825,0.0988 -0.2186,0.2983 -0.37797,0.37798 -0.22538,0.11269 -0.53057,-0.11269 -0.75595,0 -0.15937,0.0797 -0.21861,0.29829 -0.37798,0.37798 -0.30238,0.15119 -0.83155,-0.15119 -1.13393,0 -0.15937,0.0797 -0.21861,0.29829 -0.37798,0.37797 -0.22538,0.11269 -0.53057,-0.11269 -0.75595,0 -0.15937,0.0797 -0.2186,0.2983 -0.37797,0.37798 -0.0977,0.0489 -1.99995,0 -2.26786,0 -0.12599,0 -0.28888,-0.0891 -0.37797,0 -0.0891,0.0891 0.0891,0.28889 0,0.37798 -0.0891,0.0891 -0.25199,0 -0.37798,0 -0.12599,0 -0.25198,0 -0.37798,0 -1.637891,0 -3.275788,0 -4.913684,0 -5.039682,0 -10.079365,0 -15.119048,0 -6.67758,0 -13.355158,0 -20.032739,0 -1.637895,0 -3.275793,0 -4.913691,0 -0.270219,0 -2.074375,0.0645 -2.267854,0 -0.169037,-0.0564 -0.21861,-0.29829 -0.377979,-0.37798 -0.237564,-0.11878 -1.274336,0.11878 -1.511903,0 -0.159369,-0.0797 -0.218607,-0.29829 -0.377976,-0.37798 -0.238453,-0.11922 -1.651429,0.11923 -1.889882,0 -0.318738,-0.15936 -0.437216,-0.59658 -0.755951,-0.75595 -0.20505,-0.10252 -1.408483,0.10342 -1.511906,0 -0.08909,-0.0891 0.08909,-0.28888 0,-0.37798 -0.188987,-0.18898 -0.944941,0.18899 -1.133928,0 -0.08909,-0.0891 0.08909,-0.28888 0,-0.37797 -0.178181,-0.17818 -0.530571,0.11269 -0.755954,0 -0.318735,-0.15937 -0.437213,-0.59659 -0.755951,-0.75595 -0.112692,-0.0564 -0.288886,0.0891 -0.377976,0 -0.08909,-0.0891 0.08909,-0.28889 0,-0.37798 -0.178179,-0.17818 -0.577773,0.17818 -0.755952,0 -0.08909,-0.0891 0.08909,-0.28889 0,-0.37798 -0.178181,-0.17818 -0.577773,0.17818 -0.755954,0 -0.782045,-0.78204 1.195073,0.0306 -0.377976,-0.75595 -0.22538,-0.11269 -0.577771,0.17818 -0.755951,0 -0.08909,-0.0891 0.08909,-0.28888 0,-0.37797 -0.178179,-0.17819 -0.530572,0.11269 -0.755952,0 -0.159369,-0.0797 -0.218609,-0.2983 -0.377976,-0.37798 -0.112691,-0.0564 -0.265287,0.0564 -0.377978,0 -0.159367,-0.0797 -0.218607,-0.29829 -0.377976,-0.37798 -0.112689,-0.0563 -0.288885,0.0891 -0.377976,0 -0.08909,-0.0891 0.08909,-0.28888 0,-0.37797 -0.01214,-0.0122 -1.04226,0 -1.133927,0 -0.125992,0 -0.251984,0 -0.377976,0 -0.125992,0 -0.288888,0.0891 -0.377979,0 -0.08909,-0.0891 0.08909,-0.28889 0,-0.37798 -0.132675,-0.13268 -1.628798,0.13054 -1.889879,0 -0.159369,-0.0797 -0.218609,-0.29829 -0.377976,-0.37798 -0.112691,-0.0563 -0.288887,0.0891 -0.377978,0 -0.178178,-0.17817 0.178181,-0.57777 0,-0.75595 -0.08909,-0.0891 -0.288885,0.0891 -0.377976,0 -0.08909,-0.0891 0,-0.25198 0,-0.37797 -0.125992,0 -0.288885,0.0891 -0.377976,0 -0.01214,-0.0121 0,-1.04226 0,-1.13393 0,-0.2629 -0.06834,-1.75319 0,-1.88988 0.07968,-0.15937 0.298292,-0.21861 0.377976,-0.37798 0.112692,-0.22538 -0.112688,-0.53057 0,-0.75595 0.07968,-0.15937 0.298294,-0.21861 0.377976,-0.37798 0.05635,-0.11269 -0.05634,-0.26528 0,-0.37797 0.159369,-0.31874 0.596585,-0.43722 0.755954,-0.75596 0.112689,-0.22538 -0.112691,-0.53057 0,-0.75595 1.253588,-1.25359 -0.178181,0.35636 0.377976,-0.75595 0.07968,-0.15937 0.298291,-0.21861 0.377976,-0.37798 0.112691,-0.22538 -0.178178,-0.57777 0,-0.75595 0.782047,-0.78205 -0.03057,1.19507 0.755952,-0.37798 0.15119,-0.30238 -0.151191,-0.83154 0,-1.13393 0.07968,-0.15936 0.298293,-0.2186 0.377975,-0.37797 0.11923,-0.23845 -0.119226,-1.65143 0,-1.88988 0.07968,-0.15937 0.298294,-0.21861 0.377979,-0.37798 0.151188,-0.30238 -0.151191,-0.83155 0,-1.13393 0.07968,-0.15937 0.298291,-0.21861 0.377976,-0.37797 0.119226,-0.23846 -0.119227,-1.65143 0,-1.88988 0.07968,-0.15937 0.298291,-0.21861 0.377975,-0.37798 0.109152,-0.2183 -0.09271,-1.89702 0,-2.26786 0.06833,-0.27331 0.288886,-0.48868 0.377976,-0.75595 0.07968,-0.23905 -0.112691,-0.53057 0,-0.75595 0.07968,-0.15937 0.298291,-0.21861 0.377976,-0.37798 0.05635,-0.11269 0,-0.25198 0,-0.37797 0,-0.42445 -0.09007,-2.37562 0,-2.64584 0.08909,-0.26727 0.288888,-0.48868 0.377976,-0.75595 0.06819,-0.20456 0,-1.38314 0,-1.5119 0,-0.75596 0,-1.51191 0,-2.26786 0,-0.88195 0,-1.76389 0,-2.64584 0,-0.25198 0,-0.50396 0,-0.75595 0,-0.12599 -0.05635,-0.26528 0,-0.37797 0.07968,-0.15937 0.298294,-0.21861 0.377976,-0.37798 0.04969,-0.0994 0,-1.31425 0,-1.5119 0,-1.13393 0,-2.26786 0,-3.40179 0,-0.75595 0,-1.51191 0,-2.26786 0,-0.12599 0,-0.25198 0,-0.37797 0,-0.126 0.05635,-0.26529 0,-0.37798 -0.07968,-0.15937 -0.298292,-0.21861 -0.377976,-0.37798 -0.06835,-0.13668 0,-1.62698 0,-1.88988 0,-1.38591 0,-2.77182 0,-4.15774 0,-1.63789 0,-3.27579 0,-4.91369 0,-0.3437 -0.0785,-2.0716 0,-2.26785 0.209261,-0.52316 0.503968,-1.00794 0.755954,-1.51191 z"
       id="path4900"
       inkscape:connector-curvature="0" />
    <path
       style="fill:#00ff00;fill-opacity:1;stroke:#1a1a1a;stroke-width:0.60273302;stroke-linecap:butt;stroke-linejoin:round;stroke-miterlimit:4;stroke-dasharray:none;stroke-dashoffset:0;stroke-opacity:1;paint-order:markers fill stroke"
       id="path4890"
       transform="matrix(0.97464299,-0.22376559,-0.09092545,-0.9958577,0,0)"
       sodipodi:type="arc"
       sodipodi:cx="59.796513"
       sodipodi:cy="-260.2601"
       sodipodi:rx="16.018478"
       sodipodi:ry="22.947598"
       sodipodi:start="0"
       sodipodi:end="2.8304594"
       sodipodi:open="true"
       d="m 75.814991,-260.2601 a 16.018478,22.947598 0 0 1 -13.536577,22.67048 16.018478,22.947598 0 0 1 -17.731289,-15.64536" />
    <path
       style="fill:#00ff00;fill-opacity:1;stroke:#1a1a1a;stroke-width:0.60000008;stroke-linecap:butt;stroke-linejoin:round;stroke-miterlimit:4;stroke-dasharray:none;stroke-dashoffset:0;stroke-opacity:1;paint-order:markers fill stroke"
       id="path4902"
       sodipodi:type="arc"
       sodipodi:cx="67.043533"
       sodipodi:cy="210.24812"
       sodipodi:rx="6.00037"
       sodipodi:ry="5.2980118"
       sodipodi:start="0"
       sodipodi:end="3.1529123"
       d="m 73.043903,210.24812 a 6.00037,5.2980118 0 0 1 -3.019813,4.59818 6.00037,5.2980118 0 0 1 -6.019871,-0.0301 6.00037,5.2980118 0 0 1 -2.960671,-4.62806 l 5.999985,0.06 z" />
    <path
       style="fill:#00ff00;fill-opacity:1;stroke:#1a1a1a;stroke-width:0.60000008;stroke-linecap:butt;stroke-linejoin:round;stroke-miterlimit:4;stroke-dasharray:none;stroke-dashoffset:0;stroke-opacity:1;paint-order:markers fill stroke"
       id="path4902-3"
       sodipodi:type="arc"
       sodipodi:cx="99.502235"
       sodipodi:cy="210.56413"
       sodipodi:rx="6.00037"
       sodipodi:ry="5.2980118"
       sodipodi:start="0"
       sodipodi:end="3.1529123"
       d="m 105.50261,210.56413 a 6.00037,5.2980118 0 0 1 -3.01982,4.59818 6.00037,5.2980118 0 0 1 -6.019869,-0.0301 6.00037,5.2980118 0 0 1 -2.960671,-4.62806 l 5.999985,0.06 z" />
  </g>
</svg>
