<?xml version="1.0" encoding="UTF-8" standalone="no"?>
<!-- Created with Inkscape (http://www.inkscape.org/) -->

<svg
   xmlns:dc="http://purl.org/dc/elements/1.1/"
   xmlns:cc="http://creativecommons.org/ns#"
   xmlns:rdf="http://www.w3.org/1999/02/22-rdf-syntax-ns#"
   xmlns:svg="http://www.w3.org/2000/svg"
   xmlns="http://www.w3.org/2000/svg"
   xmlns:sodipodi="http://sodipodi.sourceforge.net/DTD/sodipodi-0.dtd"
   xmlns:inkscape="http://www.inkscape.org/namespaces/inkscape"
   width="210mm"
   height="297mm"
   viewBox="0 0 210 297"
   version="1.1"
   id="svg8"
   inkscape:version="0.92.0 r15299"
   sodipodi:docname="рисунок-1маг.svg">
  <defs
     id="defs2" />
  <sodipodi:namedview
     id="base"
     pagecolor="#ffffff"
     bordercolor="#666666"
     borderopacity="1.0"
     inkscape:pageopacity="0.0"
     inkscape:pageshadow="2"
     inkscape:zoom="0.49497475"
     inkscape:cx="-13.860233"
     inkscape:cy="649.60238"
     inkscape:document-units="mm"
     inkscape:current-layer="layer1"
     showgrid="false"
     inkscape:window-width="1440"
     inkscape:window-height="837"
     inkscape:window-x="-8"
     inkscape:window-y="-8"
     inkscape:window-maximized="1" />
  <metadata
     id="metadata5">
    <rdf:RDF>
      <cc:Work
         rdf:about="">
        <dc:format>image/svg+xml</dc:format>
        <dc:type
           rdf:resource="http://purl.org/dc/dcmitype/StillImage" />
        <dc:title />
      </cc:Work>
    </rdf:RDF>
  </metadata>
  <g
     inkscape:label="Layer 1"
     inkscape:groupmode="layer"
     id="layer1">
    <g
       id="g5674"
       transform="translate(-66.817381,-65.748303)">
      <path
         sodipodi:nodetypes="cccc"
         inkscape:connector-curvature="0"
         id="path4595"
         d="m 70.242439,95.37473 7.157417,44.86704 -6.311568,-39.56474 z"
         style="fill:none;stroke:#000000;stroke-width:0.96499997;stroke-linecap:butt;stroke-linejoin:miter;stroke-miterlimit:4;stroke-dasharray:none;stroke-opacity:1" />
      <path
         sodipodi:nodetypes="cscscccccsscccscscccccccccccccccccccccccccccscsccsccccccccccccccccccccccccccccccccccscssccccccsccccccscscsccscccccccsccscscscsssssssccsssc"
         inkscape:connector-curvature="0"
         id="path4538"
         d="m 83.910714,70.970238 c -0.440039,-2.957867 0.654164,-1.410119 1.133928,-1.889883 0.08909,-0.08909 -0.08909,-0.288885 0,-0.377976 0.08909,-0.08909 0.288885,0.08909 0.377975,0 0.08909,-0.08909 -0.08909,-0.288885 0,-0.377975 0.178181,-0.178179 0.530572,0.112691 0.755952,0 0.159369,-0.07969 0.218609,-0.298292 0.377978,-0.377976 0.30238,-0.151191 0.831546,0.151191 1.133928,0 0.159369,-0.07968 0.218607,-0.298292 0.377976,-0.377976 0.136689,-0.06834 1.626983,0 1.889881,0 0.125992,0 0.288886,0.08909 0.377976,0 0.08909,-0.08909 -0.08909,-0.288888 0,-0.377976 0.132678,-0.132678 1.628802,0.13054 1.889882,0 0.159369,-0.07968 0.218607,-0.298291 0.377976,-0.377976 0.11503,-0.05752 0.963702,0 1.133927,0 h 2.645833 2.645834 c 0.125992,0 0.288888,-0.08909 0.377976,0 0.08909,0.08909 -0.08909,0.288886 0,0.377976 0.178181,0.178178 0.577773,-0.178181 0.755954,0 0.0891,0.08909 -0.0891,0.288885 0,0.377976 0.18899,0.188986 0.94494,-0.188989 1.13393,0 0.0891,0.08909 -0.0891,0.288885 0,0.377976 0.17818,0.178181 0.57777,-0.178179 0.75595,0 0.0891,0.08909 -0.0891,0.288885 0,0.377976 0.17818,0.178181 0.57778,-0.178179 0.75596,0 0.0891,0.08909 -0.0891,0.288887 0,0.377975 0.0891,0.08909 0.26528,-0.05634 0.37797,0 0.15937,0.07968 0.21861,0.298294 0.37798,0.377976 0.11269,0.05635 0.26528,-0.05634 0.37797,0 0.15937,0.07968 0.21861,0.298294 0.37798,0.377979 0.11269,0.05634 0.28889,-0.08909 0.37798,0 0.17818,0.178178 -0.17818,0.57777 0,0.755951 0.0891,0.08909 0.26528,-0.05634 0.37797,0 0.31874,0.159369 0.43722,0.596583 0.75596,0.755952 0.11269,0.05634 0.28888,-0.08909 0.37797,0 0.0891,0.08909 -0.0891,0.288888 0,0.377976 0.0891,0.08909 0.28889,-0.08909 0.37798,0 0.0891,0.08909 -0.0891,0.288888 0,0.377975 0.0891,0.08909 0.28889,-0.08909 0.37797,0 0.0891,0.08909 -0.0891,0.288888 0,0.377979 0.0891,0.08909 0.28889,-0.08909 0.37798,0 0.17818,0.178178 -0.17818,0.57777 0,0.755951 0.0891,0.08909 0.28889,-0.08909 0.37798,0 0.0891,0.08909 -0.0891,0.288886 0,0.377976 0.0891,0.08909 0.28888,-0.08909 0.37797,0 0.0891,0.08909 -0.0891,0.288886 0,0.377976 0.0891,0.08909 0.28889,-0.08909 0.37798,0 0.0891,0.08909 -0.0891,0.288888 0,0.377976 0.0891,0.08909 0.28888,-0.08909 0.37798,0 0.0891,0.08909 -0.0563,0.265287 0,0.377976 0.0797,0.159369 0.29829,0.218609 0.37797,0.377978 0.11269,0.22538 -0.11269,0.530569 0,0.755952 0.0797,0.159369 0.29829,0.218606 0.37798,0.377976 0.11269,0.225382 -0.17818,0.577773 0,0.755951 0.0891,0.08909 0.26528,-0.05634 0.37797,0 1.57305,0.786524 -0.40407,-0.02609 0.37798,0.755954 0.0891,0.08909 0.28889,-0.08909 0.37798,0 0.25273,0.252736 -0.25274,0.503217 0,0.755952 0.0891,0.08909 0.28888,-0.08909 0.37797,0 0.17818,0.178178 -0.17818,0.577773 0,0.755952 0.0891,0.08909 0.28889,-0.08909 0.37798,0 0.17818,0.178181 -0.17818,0.577773 0,0.755951 0.0891,0.08909 0.28888,-0.08909 0.37797,0 0.0891,0.08909 -0.0891,0.288888 0,0.377979 0.0891,0.08909 0.28889,-0.08909 0.37798,0 0.0773,0.07727 -0.0749,0.984062 0,1.133927 0.0797,0.159369 0.29829,0.218607 0.37798,0.377976 0.0749,0.149865 -0.0773,1.056656 0,1.13393 0.0891,0.08909 0.28888,-0.08909 0.37797,0 0.18899,0.188987 -0.18898,0.944938 0,1.133928 0.0891,0.08909 0.28889,-0.08909 0.37798,0 0.10342,0.103422 -0.10252,1.306856 0,1.511905 0.0797,0.159367 0.25198,0.251984 0.37798,0.377976 -4.68353,-1.005008 -0.5363,1.670224 -1.13393,2.267858 -0.0891,0.08909 -0.28889,-0.08909 -0.37798,0 -0.17818,0.178179 0.11269,0.530571 0,0.755952 -0.0797,0.159369 -0.29829,0.218608 -0.37797,0.377976 -0.11269,0.225382 0.17818,0.577773 0,0.755953 -0.0891,0.08909 -0.28889,-0.08909 -0.37798,0 -0.0891,0.08909 0.0563,0.265285 0,0.377976 -0.15937,0.318737 -0.59658,0.437215 -0.75595,0.755952 -0.0563,0.112691 0.0891,0.288887 0,0.377976 -0.0891,0.08909 -0.28889,-0.08909 -0.37798,0 -0.0891,0.08909 0.0891,0.288887 0,0.377977 -0.0891,0.08909 -0.28888,-0.08909 -0.37797,0 -0.0891,0.08909 0.0891,0.288886 0,0.377976 -0.0891,0.08909 -0.28889,-0.08909 -0.37798,0 -0.17818,0.17818 0.17818,0.577773 0,0.755952 -0.0891,0.08909 -0.26529,-0.05634 -0.37798,0 -0.15937,0.07968 -0.2186,0.298292 -0.37797,0.377976 -0.22538,0.112691 -0.57778,-0.178179 -0.75596,0 -0.0891,0.08909 0.0891,0.288887 0,0.377977 -0.18898,0.188988 -0.94494,-0.188988 -1.13392,0 -0.0891,0.08909 0.0891,0.288886 0,0.377976 -0.0891,0.08909 -0.26529,-0.05635 -0.37798,0 -0.15937,0.07968 -0.21861,0.298292 -0.37798,0.377976 -0.22538,0.112691 -0.53057,-0.112691 -0.75595,0 -0.15937,0.07968 -0.21861,0.298292 -0.37798,0.377976 -0.26108,0.130541 -1.7572,-0.132677 -1.88988,0 -0.0891,0.08909 0.0891,0.288887 0,0.377976 -0.0122,0.01216 -1.04226,0 -1.13392,0 h -7.181556 -4.535715 c -0.262897,0 -1.753192,0.06834 -1.889881,0 -0.159368,-0.07968 -0.218607,-0.298291 -0.377976,-0.377976 -0.225381,-0.112691 -0.530571,0.112691 -0.755952,0 -0.318738,-0.159369 -0.437215,-0.596583 -0.755953,-0.755952 -0.11269,-0.05635 -0.288886,0.08909 -0.377976,0 -0.08909,-0.08909 0.08909,-0.288887 0,-0.377976 -0.08909,-0.08909 -0.265285,0.05634 -0.377976,0 -0.159369,-0.07968 -0.218607,-0.298292 -0.377976,-0.377977 -0.225382,-0.11269 -0.577773,0.17818 -0.755952,0 -0.08909,-0.08909 0.05634,-0.265285 0,-0.377976 -0.159369,-0.318737 -0.596584,-0.437215 -0.755953,-0.755952 -0.05634,-0.112691 0.08909,-0.288887 0,-0.377976 -0.08909,-0.08909 -0.288886,0.08909 -0.377976,0 -0.08909,-0.08909 0.05634,-0.265286 0,-0.377977 -0.07968,-0.159368 -0.298292,-0.218607 -0.377976,-0.377976 -0.05635,-0.11269 0.08909,-0.288886 0,-0.377976 -0.782046,-0.782046 0.03057,1.19507 -0.755953,-0.377976 -0.05751,-0.115031 0,-0.963704 0,-1.133929 v -2.645833 -0.377976 c 0,-0.125992 -0.08909,-0.288887 0,-0.377976 0.08909,-0.08909 0.288887,0.08909 0.377977,0 0.08909,-0.08909 0,-0.251985 0,-0.377977 v -2.267857 c 0,-0.125992 -0.08909,-0.288886 0,-0.377976 0.08909,-0.08909 0.288886,0.08909 0.377976,0 0.08909,-0.08909 0,-0.251984 0,-0.377976 v -2.267857 c 0,-0.125992 -0.08909,-0.288887 0,-0.377976 0.08909,-0.08909 0.288886,0.08909 0.377976,0 0.188988,-0.188989 -0.188988,-0.944941 0,-1.133929 0.08909,-0.08909 0.288886,0.08909 0.377976,0 0.01216,-0.01216 0,-1.042259 0,-1.133929 v -6.425595"
         style="fill:none;stroke:#000000;stroke-width:0.26458332px;stroke-linecap:butt;stroke-linejoin:miter;stroke-opacity:1" />
      <path
         d="m 384.85156,358.10352 c -2.14175,0.24748 -5.07575,3.85763 -6.27929,0.13086 l -7.14454,2.85742 c -0.34646,0 -4.23927,-0.0459 -4.28515,0 -0.33672,0.33672 0.33672,1.09101 0,1.42773 -0.34376,0.34375 -5.3711,-0.34375 -5.71485,0 -0.33671,0.33672 0.33672,1.09297 0,1.42969 -0.67343,0.67343 -2.18204,-0.67344 -2.85546,0 -0.33672,0.33671 0.33671,1.09102 0,1.42773 -0.33673,0.33672 -1.09297,-0.33671 -1.42969,0 -0.33672,0.33673 0.33672,1.09102 0,1.42774 -0.71429,0.71428 -3.57087,-0.71429 -4.28516,0 -0.33672,0.33672 0.33672,1.09297 0,1.42969 -0.33671,0.3367 -1.09297,-0.33672 -1.42969,0 -0.33671,0.33671 0.33672,1.09101 0,1.42773 -0.33671,0.33672 -1.00181,-0.21298 -1.42773,0 -0.60234,0.30117 -0.82539,1.12853 -1.42773,1.42969 -0.42593,0.21294 -1.09297,-0.33672 -1.42969,0 -0.33672,0.33671 0.33672,1.09101 0,1.42773 -0.33672,0.33672 -0.95155,0 -1.42774,0 0,0.4762 0.33672,1.09297 0,1.42969 -0.33671,0.33672 -1.09297,-0.33672 -1.42968,0 -0.33672,0.33671 0.33671,1.09102 0,1.42773 -0.33671,0.33672 -1.09102,-0.33671 -1.42774,0 -0.33672,0.33672 0.33672,1.09102 0,1.42774 -0.33671,0.33672 -1.09297,-0.33672 -1.42969,0 -0.33671,0.33672 0.33672,1.09297 0,1.42969 -0.33671,0.33674 -1.00181,-0.21279 -1.42773,0 -0.60234,0.30118 -0.82539,1.1265 -1.42773,1.42773 -0.42592,0.21279 -1.09297,-0.33676 -1.42969,0 -0.67344,0.67344 0.67343,2.18399 0,2.85742 -0.33672,0.33676 -1.09102,-0.33675 -1.42774,0 -0.33671,0.33672 0.33672,1.09293 0,1.42969 -1.90477,1.90477 -1.42968,-2.38177 -1.42968,1.42773 -2.97268,5.94539 0.0983,-1.52804 -2.85743,1.42774 -0.67343,0.67343 0.67344,2.18398 0,2.85742 -0.33672,0.33676 -1.09101,-0.33676 -1.42773,0 -0.33672,0.33672 0.33672,1.09293 0,1.42969 -0.33672,0.33675 -1.09102,-0.33676 -1.42773,0 -0.71429,0.71429 0.71428,3.57086 0,4.28515 -2.95575,2.95574 0.11526,-4.51761 -2.85743,1.42774 -0.42591,0.85183 0.67344,2.18398 0,2.85742 -0.33671,0.33676 -1.09297,-0.33676 -1.42968,0 -0.71429,0.71425 0.71429,3.57282 0,4.28711 -0.33671,0.33675 -1.09102,-0.33676 -1.42774,0 -0.39089,0.39088 0.38749,4.9379 0,5.71289 -0.30117,0.60234 -1.12853,0.82738 -1.42969,1.42969 -0.42591,0.85186 0.42593,2.00559 0,2.85742 -0.30116,0.60234 -1.12658,0.82543 -1.42773,1.42773 -0.44894,0.89791 0.44894,4.81694 0,5.71485 -0.30117,0.60234 -1.12658,0.82543 -1.42773,1.42773 -0.25834,0.51662 0,6.14894 0,7.14258 0,0.0525 0.0147,0.1107 0.0215,0.16601 0.44554,0.18955 0.80398,0.51341 0.98047,0.91797 0.94124,0.27483 1.48139,0.77559 1.49609,2.05274 0.46476,0.47217 0.7412,1.08486 0.67774,1.94336 0.36674,0.0782 0.73294,0.15728 1.09375,0.25976 0.0549,0.0156 0.13364,0.0587 0.20508,0.0937 0.006,1.2e-4 0.009,-1.4e-4 0.0156,0 0.0624,0.001 0.12315,0.003 0.18555,0.004 -0.008,0.0819 -0.0982,0.0468 -0.20117,-0.004 -3.48758,-0.0645 4.19652,3.07868 0.69335,3.50586 -0.18723,0.0227 -0.3733,0.0457 -0.56054,0.0684 -0.78086,-0.0563 -0.70465,-3.6e-4 -1.44336,-0.25 -0.10434,-0.0352 -0.34894,-0.0741 -0.36524,-0.1289 -0.28544,-0.0285 -0.56623,-0.0621 -0.59375,-0.0566 -10e-4,-3.9e-4 -0.006,-0.002 -0.008,-0.002 -0.12514,0.26561 -0.25948,0.48644 -0.40625,0.56836 -0.14314,0.23986 -0.2504,0.40124 -0.13281,0.16211 -0.28713,0.28951 -0.55201,0.60352 -0.86133,0.86914 -0.10212,0.0877 -0.23456,0.13433 -0.36133,0.17969 -0.92129,0.32995 -1.32455,0.42331 -2.21093,0.34766 -0.40635,-0.005 -0.79723,0.028 -1.18946,0.0488 0.0912,2.24081 0.42986,5.42916 0.10742,6.39649 -0.33671,1.01015 -0.95349,1.90505 -1.42968,2.85742 -0.47619,0 -1.09102,-0.33676 -1.42774,0 -0.33672,0.33672 0,0.9535 0,1.42969 v 1.42773 c 0,1.01261 0.18467,8.20301 0,8.57227 -0.30117,0.60234 -1.12853,0.82539 -1.42969,1.42773 -0.21297,0.42592 0,0.95347 0,1.42969 0,1.43864 0.26336,7.78028 0,8.57031 -0.21296,0.63889 -1.12658,0.82735 -1.42773,1.42969 -0.45062,0.90123 0.45062,6.24131 0,7.14258 -0.30117,0.60234 -1.12654,0.82543 -1.42773,1.42773 -0.45062,0.90127 0.45062,6.24131 0,7.14258 -1.76529,3.53057 -1.42969,-0.49283 -1.42969,2.85742 v 8.57227 c 0,0.64339 0.21736,3.85039 0,4.28515 -0.30117,0.60235 -1.12658,0.82539 -1.42774,1.42774 -0.42591,0.85183 0.67343,2.18398 0,2.85742 -0.33672,0.33676 -1.21671,-0.42592 -1.42968,0 -0.43839,0.87677 0.44279,6.257 0,7.14258 -0.30116,0.60234 -1.12659,0.82734 -1.42774,1.42969 -0.18467,0.36936 0,7.55773 0,8.57031 v 18.57226 8.57227 c 0,0.47618 -0.33672,1.09098 0,1.42773 0.0575,0.0575 5.19023,0 5.71485,0 0.52462,0 5.6554,-0.0575 5.71289,0 1.90476,1.90477 -2.37985,1.42774 1.42968,1.42774 3.80953,0 -0.47702,-0.47508 1.42774,1.42969 0.33671,0.33674 0.9535,0 1.42969,0 H 320 h 1.42773 c 0,0.47617 0.9535,0 1.42969,0 h 1.42774 c 0,0.47617 0.9535,0 1.42968,0 h 1.42774 c 0,0.47617 0.9535,0 1.42969,0 H 330 334.28516 340 351.42773 c 0.47619,0 1.09297,-0.33676 1.42969,0 0.33672,0.3367 -0.33672,1.09097 0,1.42773 0.046,0.0457 3.93869,0 4.28516,0 h 24.28515 21.42969 1.42774 c 0.47618,0 1.09293,0.33676 1.42968,0 0.33676,-0.33672 -0.33675,-1.09099 0,-1.42773 0.33672,-0.33676 0.95156,0 1.42774,0 h 4.28515 4.28711 c 0,0.47617 0.95156,0 1.42774,0 H 418.57227 420 c 0,0.47617 0.95155,0 1.42773,0 0.47622,0 1.09294,0.33674 1.42969,0 0.33676,-0.33672 -0.42591,-1.21691 0,-1.42969 0.46366,-0.23183 0.98731,-0.20749 1.52149,-0.14063 -0.0566,0.033 -0.0937,0.0777 -0.0937,0.14063 0,0.47618 0.9535,0 1.42968,0 h 1.42774 c 0,0.47618 0.95347,0 1.42969,0 0.47618,0 1.09097,0.33675 1.42773,0 0.29216,-0.29205 -0.28309,-3.71876 0,-4.28516 1.11047,-2.22093 1.38957,-2.33284 1.42773,-1.85351 v -1.00391 c 0,-3.80954 -0.47504,0.47702 1.42969,-1.42773 0.33676,-0.33672 0,-0.95347 0,-1.42969 v -1.42774 -1.42773 -2.85742 -1.42969 c 0.47622,0 0,-0.95156 0,-1.42773 v -1.42969 -1.42774 -2.85742 -8.57031 -27.14453 -17.14258 c 0,-0.99364 0.25814,-6.62596 0,-7.14258 -0.30115,-0.60234 -1.12846,-0.82539 -1.42969,-1.42773 -0.21278,-0.42588 0,-0.95351 0,-1.42969 v -1.42773 -10 c 0,-0.64339 0.21733,-3.8504 0,-4.28516 -0.30119,-0.60234 -1.1265,-0.82735 -1.42773,-1.42969 -0.21279,-0.42588 0,-0.95155 0,-1.42773 v -1.42969 -8.57031 -1.42969 c 0,-0.47618 0.33676,-1.09099 0,-1.42773 -0.33672,-0.33676 -1.09098,0.33674 -1.42773,0 -0.34394,-0.34375 0.34393,-5.37091 0,-5.71485 -0.33672,-0.33675 -1.09294,0.33676 -1.42969,0 -0.29216,-0.29204 0.28308,-3.71873 0,-4.28515 -0.30115,-0.60235 -1.12651,-0.82735 -1.42774,-1.42969 -0.38747,-0.77496 0.39088,-5.32201 0,-5.71289 -0.33671,-0.33676 -1.09293,0.33675 -1.42968,0 -0.33676,-0.33672 0,-0.95351 0,-1.42969 v -1.42773 c 0,-0.52464 0.0574,-5.6574 0,-5.71485 -0.33672,-0.33675 -1.09098,0.33676 -1.42774,0 -0.67343,-0.67343 0.67344,-2.18398 0,-2.85742 -0.33672,-0.33676 -1.09293,0.33676 -1.42969,0 -0.34393,-0.34375 0.34394,-5.36895 0,-5.71289 -0.33671,-0.33676 -1.09097,0.33675 -1.42773,0 -0.67344,-0.67348 0.42591,-2.00559 0,-2.85742 -0.30119,-0.60235 -1.12651,-0.82739 -1.42773,-1.42969 -0.42592,-0.85183 0.42591,-2.00559 0,-2.85742 -0.30116,-0.60235 -1.12846,-0.82539 -1.42969,-1.42774 -0.21279,-0.42591 0.21279,-1.00182 0,-1.42773 -0.30119,-0.60234 -1.12651,-0.82735 -1.42774,-1.42969 -0.42591,-0.85183 0.67344,-2.18398 0,-2.85742 -0.33671,-0.33676 -1.09293,0.33676 -1.42968,0 -0.33676,-0.33672 0.21278,-1.00183 0,-1.42773 -0.30116,-0.60235 -1.12651,-0.82735 -1.42774,-1.42969 -0.98525,-1.9705 1.72898,-1.27616 -1.42969,-2.85547 -0.42591,-0.21279 -1.09097,0.33675 -1.42773,0 -0.67344,-0.67344 0.67344,-2.18395 0,-2.85742 -0.33676,-0.33676 -1.09098,0.33675 -1.42773,0 -0.67344,-0.6734 0.67343,-2.184 0,-2.85742 -0.33672,-0.33672 -1.09294,0.33674 -1.42969,0 -0.33676,-0.33671 0.33675,-1.09297 0,-1.42969 -2.95578,-2.95577 0.11525,4.51764 -2.85742,-1.42774 -0.21279,-0.42592 0.33675,-1.09101 0,-1.42773 -0.33672,-0.33672 -1.09098,0.33672 -1.42774,0 -0.6734,-0.67344 0.67344,-2.18398 0,-2.85742 -0.33668,-0.33672 -1.09293,0.33671 -1.42969,0 -0.33675,-0.33671 0.33676,-1.09297 0,-1.42969 -0.67343,-0.67343 -2.18207,0.67344 -2.85546,0 -0.33676,-0.33672 0.33675,-1.09103 0,-1.42773 -0.33672,-0.33672 -1.09294,0.3367 -1.42969,0 -2.95578,-2.95575 4.51765,0.11525 -1.42774,-2.85743 -0.42591,-0.21294 -1.09293,0.33672 -1.42968,0 -0.33676,-0.33671 0.33675,-1.09101 0,-1.42773 -0.33672,-0.33672 -1.00182,0.21294 -1.42774,0 -0.60234,-0.30117 -0.82734,-1.12854 -1.42969,-1.42969 -0.42591,-0.21294 -1.09097,0.33672 -1.42773,0 -0.33676,-0.33671 0.21279,-1.00181 0,-1.42773 -1.57931,-3.15865 -0.88693,-0.44443 -2.85742,-1.42969 -0.60235,-0.30117 -0.82539,-1.12659 -1.42774,-1.42773 -0.26619,-0.1331 -0.55731,-0.16622 -0.86328,-0.13086 z m 46.57617,192.8457 c -0.0286,0.62316 -0.19356,1.57031 0,1.57031 0.47619,0 0,-0.95155 0,-1.42773 z"
         style="fill:none;stroke:#000000;stroke-width:0.99999994px;stroke-linecap:butt;stroke-linejoin:miter;stroke-opacity:1"
         transform="scale(0.26458333)"
         id="path4540"
         inkscape:connector-curvature="0" />
      <path
         sodipodi:nodetypes="cscccccccscscssccsssccccccccssssscccsscscsccscsccscsccscccssccscsccsccscc"
         inkscape:connector-curvature="0"
         id="path4555"
         d="m 97.13988,148.07738 v 6.04762 c 0,0.19765 0.04969,1.41252 0,1.5119 -0.07968,0.15937 -0.298291,0.21861 -0.377975,0.37798 -0.07493,0.14986 0.07727,1.05665 0,1.13393 -0.08909,0.0891 -0.288888,-0.0891 -0.377979,0 -0.09095,0.0909 0.09095,1.42095 0,1.5119 -0.08909,0.0891 -0.288885,-0.0891 -0.377976,0 -0.178178,0.17818 0.178181,0.57777 0,0.75595 -0.08909,0.0891 -0.288885,-0.0891 -0.377975,0 -0.08909,0.0891 0.08909,0.28889 0,0.37798 -0.08909,0.0891 -0.288886,-0.0891 -0.377976,0 -0.08909,0.0891 0.08909,0.28889 0,0.37798 -0.08909,0.0891 -0.377976,0.12599 -0.377976,0 0,-0.12599 0.377976,-0.12599 0.377976,0 0,0.78652 -0.530061,0.15208 -0.755952,0.37797 -0.08909,0.0891 0.08909,0.28889 0,0.37798 -0.01217,0.0121 -1.04226,0 -1.13393,0 -0.125992,0 -0.377976,0.12599 -0.377976,0 0,-0.12599 0.503968,0 0.377976,0 h -1.889879 -1.511906 -0.377976 0.755952 c -0.377976,0 -0.775348,-0.11953 -1.133927,0 -0.239054,0.0797 -0.199798,0.57777 -0.377976,0.75595 -0.08909,0.0891 0.08909,-0.0891 0,0 -0.08909,0.0891 0.05634,-0.11269 0,0 -0.07968,0.15937 -0.298294,0.59659 -0.377979,0.75596 -0.05634,0.11268 0.125992,0.37797 0,0.37797 -0.125992,0 0.125992,-0.37797 0,-0.37797 -0.57827,0 -0.377975,1.20747 -0.377975,1.5119 v 0.37797 c 0,0.126 -0.08909,0.28889 0,0.37798 0.103422,0.10342 0.939363,0.13134 1.144409,0.23386 0.15937,0.0797 0.586103,0.0644 0.745472,0.14412 0.09939,0.0497 1.315094,-0.0182 1.511906,0 l 2.890174,0.26727 c 1.003654,0.0928 8.092548,0.17469 0.511611,0.1107 0.08909,0.0891 0.251984,0 0.377976,0 h 0.377976 3.023809 c 0.170225,0 1.018897,-0.0575 1.13393,0 0.159369,0.0797 0.218606,0.2983 0.377976,0.37798 0.11269,0.0563 0.25198,0 0.37798,0 h 0.37797 2.26786 c 0.12599,0 -0.0891,0.0891 0,0 0.0891,-0.0891 0.28887,-0.28889 0.37797,-0.37798 2.64584,-3.0238 -0.25744,0.34522 -0.0793,0.16704 0.0891,-0.0891 0.74612,-0.45592 0.83522,-0.54501 0.17818,-0.17818 0.01,-0.59022 0.188,-0.7684 0.17818,-0.17818 0.76775,-0.56532 0.94593,-0.74351 0.0891,-0.0891 -0.0891,0.0891 0,0 0.17817,-0.17817 -0.17818,0.17818 0,0 0.0891,-0.0891 -0.0891,0.0891 0,0 0.18899,-0.18899 0.56696,-0.94494 0.75595,-1.13392 0.0891,-0.0891 -0.0891,0.0891 0,0 0.0121,-0.0122 0,-1.04226 0,-1.13393 v -0.37798 c 0,-0.12599 -0.0891,-0.28889 0,-0.37798 0.0891,-0.0891 0.28889,0.0891 0.37797,0 0.0122,-0.0121 0,-1.04226 0,-1.13393 v -3.40178 -0.37798 c 0,-0.12599 0.0891,-0.28888 0,-0.37797 -0.0891,-0.0891 -0.28888,0.0891 -0.37797,0 -0.0891,-0.0891 0,-0.25199 0,-0.37798 v -0.37797 -3.40179 -1.88988 c 0,-0.12599 0.0891,-0.28889 0,-0.37798 -0.0891,-0.0891 0.0315,-0.99219 -0.0945,-0.99219"
         style="fill:none;stroke:#000000;stroke-width:0.26458332px;stroke-linecap:butt;stroke-linejoin:miter;stroke-opacity:1" />
      <path
         sodipodi:nodetypes="ccsccccccccccscscccscsssssscsssssccsccccccccsccccccccccsscssccsccsccccsccssssssccscc"
         inkscape:connector-curvature="0"
         id="path4561"
         d="m 88.59998,159.91275 0.587326,-0.71057 c -0.319766,0.23756 0.698896,-0.49202 0.812464,-0.49202 0.02227,0 0.728235,-0.24249 0.738235,-0.22259 0.01409,0.0282 0.03864,0.0527 0.06682,0.0668 0.04428,0.0221 0.211268,-0.0187 0.26727,0 0.04725,0.0157 0.08639,0.0511 0.133634,0.0668 0.04226,0.0141 0.09379,-0.0199 0.133635,0 0.02817,0.0141 0.03865,0.0527 0.06682,0.0668 0.02649,0.0132 0.186792,-0.0137 0.200452,0 0.01575,0.0157 -0.01575,0.0511 0,0.0668 0.02345,0.0234 0.287934,-0.0231 0.334087,0 0.02817,0.0141 0.03864,0.0527 0.06682,0.0668 0.02416,0.0121 0.287613,0 0.334087,0 h 0.801808 0.53454 c 0.02227,0 0.05107,0.0157 0.06682,0 0.04452,-0.0445 -0.04452,-0.0891 0,-0.13363 0.0315,-0.0315 0.102137,0.0315 0.133635,0 0.01575,-0.0157 -0.01575,-0.0511 0,-0.0668 0.01575,-0.0157 0.05107,0.0158 0.06682,0 0.01575,-0.0157 -0.01575,-0.0511 0,-0.0668 0.01575,-0.0157 0.05107,0.0157 0.06682,0 0.01575,-0.0157 -0.01575,-0.0511 0,-0.0668 0.01575,-0.0157 0.05107,0.0157 0.06682,0 0.01575,-0.0157 -0.01575,-0.0511 0,-0.0668 0.01575,-0.0157 0.05107,0.0157 0.06682,0 0.01575,-0.0157 0,-0.0445 0,-0.0668 0.02227,0 0.05107,0.0157 0.06682,0 0.01575,-0.0157 -0.01575,-0.0511 0,-0.0668 0.01575,-0.0157 0.05107,0.0157 0.06682,0 0.01575,-0.0157 -0.01575,-0.0511 0,-0.0668 0.01575,-0.0157 0.05107,0.0157 0.06682,0 0.01575,-0.0157 -0.01,-0.0469 0,-0.0668 0.01409,-0.0282 0.05273,-0.0386 0.06682,-0.0668 0.01,-0.0199 -0.01575,-0.0511 0,-0.0668 0.01575,-0.0157 0.05107,0.0157 0.06682,0 0.0315,-0.0315 -0.01992,-0.0938 0,-0.13364 0.02817,-0.0563 0.105462,-0.0773 0.133635,-0.13363 0.01992,-0.0399 -0.0315,-0.10214 0,-0.13364 0.01575,-0.0157 0.05107,0.0157 0.06682,0 0.0315,-0.0315 -0.0315,-0.10214 0,-0.13363 0.01575,-0.0157 0.05107,0.0157 0.06682,0 0.01608,-0.0161 -0.01608,-0.25119 0,-0.26727 0.01575,-0.0157 0.05107,0.0157 0.06682,0 0.01575,-0.0157 -0.01,-0.0469 0,-0.0668 0.01409,-0.0282 0.05273,-0.0386 0.06682,-0.0668 0.01992,-0.0398 -0.0315,-0.10213 0,-0.13363 0.01575,-0.0157 0.05107,0.0157 0.06682,0 0.01828,-0.0183 -0.01812,-0.23102 0,-0.26727 0.01409,-0.0282 0.05273,-0.0387 0.06682,-0.0668 0.02029,-0.0406 -0.02029,-0.36033 0,-0.4009 0.01409,-0.0282 0.05273,-0.0386 0.06682,-0.0668 0.02308,-0.0461 -0.02345,-0.31063 0,-0.33409 0.01575,-0.0158 0.05107,0.0157 0.06682,0 0.0021,-0.002 0,-0.18425 0,-0.20045 v -1.26953 c 0,-0.0245 -0.0027,-0.26458 0,-0.26727 0.01575,-0.0157 0.05107,0.0157 0.06682,0 0.01575,-0.0157 0,-0.0445 0,-0.0668 v -0.0668 -0.33409 -0.0668 c 0,-0.0223 -0.01,-0.0469 0,-0.0668 0.01409,-0.0282 0.05273,-0.0386 0.06682,-0.0668 0.0088,-0.0176 0,-0.23233 0,-0.26727 0,-0.0465 -0.01208,-0.30993 0,-0.33409 0.01409,-0.0282 0.05273,-0.0386 0.06682,-0.0668 0.02108,-0.0421 -0.02108,-0.29193 0,-0.33408 0.01409,-0.0282 0.05273,-0.0387 0.06682,-0.0668 0.0088,-0.0176 0,-0.23233 0,-0.26727 0,-0.0474 -0.0086,-0.38363 0,-0.40091 0.01409,-0.0282 0.05273,-0.0386 0.06682,-0.0668 0.0086,-0.0173 0,-0.35355 0,-0.40091 v -0.0668 c 0,-0.0223 -0.01575,-0.0511 0,-0.0668 0.01575,-0.0157 0.05107,0.0157 0.06682,0 0.01575,-0.0157 0,-0.0446 0,-0.0668 v -0.4009 c 0,-0.0474 -0.0086,-0.38363 0,-0.40091 0.01409,-0.0282 0.05273,-0.0386 0.06682,-0.0668 0.01017,-0.0203 0,-0.17036 0,-0.20045 v -0.53454 -1.20271"
         style="fill:none;stroke:#000000;stroke-width:0.26458332px;stroke-linecap:butt;stroke-linejoin:miter;stroke-opacity:1" />
      <path
         inkscape:connector-curvature="0"
         id="path4569"
         d="m 88.631529,159.75921 c 0.0041,0.0436 -0.01202,0.0393 -0.01578,0.0637 -5.3e-4,0.004 5.31e-4,0.009 0,0.0129 -8.68e-4,0.004 -0.0029,0.009 -0.0039,0.013 -0.0016,0.009 -0.0022,0.0173 -0.0039,0.0255 -0.0022,0.009 -0.0058,0.0151 -0.0079,0.0255 -7.35e-4,0.004 3.53e-4,0.009 0,0.013 -0.0019,0.0173 -0.0091,0.052 -0.01184,0.0637 -0.0025,0.0108 -0.01071,0.0291 -0.01184,0.0382 -0.0014,0.0108 0.0014,0.0263 0,0.0382 -0.01048,0.0847 -0.0058,-0.0268 -0.01184,0.051 -7.35e-4,0.009 7.35e-4,0.0173 0,0.0255 -7.35e-4,0.009 -0.0029,0.0173 -0.0039,0.0255 -0.0031,0.025 -0.0048,0.0516 -0.0079,0.0764 -0.0011,0.009 -0.0029,0.0173 -0.0039,0.0255 -0.0016,0.0129 -0.0026,0.0255 -0.0039,0.0382 -0.0013,0.013 -0.0031,0.025 -0.0039,0.0382 -5.3e-4,0.009 5.3e-4,0.0173 0,0.0255 -0.0016,0.0263 -0.0065,0.0499 -0.0079,0.0764 -7.35e-4,0.013 0,0.0255 0,0.0382 -0.0013,0.013 -0.0031,0.025 -0.0039,0.0382 -5.31e-4,0.009 0,0.0173 0,0.0255 0,0.0255 0,0.051 0,0.0764 0,0.068 0,0.13604 0,0.20407 0,0.0596 0,0.11899 0,0.17859 0,0.0216 0,0.0425 0,0.0637 0,0.009 -7.35e-4,0.0173 0,0.0255 0.0014,0.0194 0.0067,0.0324 0.0079,0.051 7.35e-4,0.013 -7.35e-4,0.0257 0,0.0382 0.0013,0.0194 0.01029,0.0566 0.01184,0.0764 7.35e-4,0.009 -5.29e-4,0.0173 0,0.0255 0.0041,0.0663 0.0026,0.013 0.0079,0.0637 3.53e-4,0.004 -7.35e-4,0.009 0,0.0129 0.0021,0.0108 0.0059,0.0151 0.0079,0.0255 0.01428,0.0769 -0.0021,0.006 0.0039,0.0637 5.3e-4,0.006 0.0029,0.009 0.0039,0.013 0.0016,0.009 0.0023,0.0173 0.0039,0.0255 0.0011,0.004 0.0029,0.009 0.0039,0.013 0.0016,0.009 0.0026,0.0173 0.0039,0.0255 0.0013,0.009 0.003,0.0173 0.0039,0.0255 3.53e-4,0.004 -8.69e-4,0.0108 0,0.013 0.0021,0.006 0.0058,0.006 0.0079,0.013 0.0019,0.006 -8.69e-4,0.0173 0,0.0255 0.0013,0.009 0.0026,0.0173 0.0039,0.0255 0.0013,0 0.003,-0.002 0.0039,0 8.68e-4,0.002 -3.53e-4,0.009 0,0.013 8.68e-4,0.009 0.0023,0.0173 0.0039,0.0255 0.0021,0.0108 0.0062,0.0151 0.0079,0.0255 5.31e-4,0.004 -8.68e-4,0.0108 0,0.013 8.69e-4,0.002 0.0028,-0.002 0.0039,0 0.0047,0.009 0.0071,0.0307 0.01184,0.0382 0.0013,0.002 0.0033,-0.004 0.0039,0 0.0013,0.009 -0.0013,0.0173 0,0.0255 5.3e-4,0.004 0.0028,-0.002 0.0039,0 0.0016,0.002 0.0026,0.009 0.0039,0.013 0.0039,0.0129 0.0079,0.0255 0.01184,0.0382 0.0026,0.009 0.0048,0.0194 0.0079,0.0255 0.0025,0.004 0.0054,0.006 0.0079,0.013 0.0016,0.004 0.0022,0.0108 0.0039,0.013 0.0025,0.002 0.0057,-0.004 0.0079,0 0.0025,0.004 0.0023,0.0173 0.0039,0.0255 7.35e-4,0.004 0.01101,0.0374 0.01184,0.0382 0.0025,0.002 0.0053,0 0.0079,0 0.0013,0.009 0.0014,0.0194 0.0039,0.0255 0.0022,0.004 0.0055,-0.004 0.0079,0 0.0013,0.002 0,0.009 0,0.013 0.0013,0.004 0.0022,0.0108 0.0039,0.013 0.0025,0.002 0.0054,-0.002 0.0079,0 0.0017,0.002 0.0024,0.009 0.0039,0.013 0.002,0.0281 0.0081,0.006 0.01184,0.013 0.0016,0.002 0.0024,0.009 0.0039,0.013 0.0025,0.004 0.0055,0.006 0.0079,0.013 0.0016,0.004 0.0024,0.009 0.0039,0.0129 0.0091,0.0194 0.01065,0.006 0.01973,0.0255 0.0031,0.006 0.0048,0.0194 0.0079,0.0255 0.0068,0.0151 0.0059,0.0129 0.01184,0.0129 0.0013,0 0.0028,-0.002 0.0039,0 0.0033,0.004 0.0043,0.0216 0.0079,0.0255 0.0025,0.002 0.0054,-0.002 0.0079,0 0.0017,0.002 0.0023,0.0108 0.0039,0.013 0.0013,0.002 0.0028,-0.002 0.0039,0 0.0016,0.002 0.0022,0.0108 0.0039,0.013 0.0025,0.002 0.0054,-0.002 0.0079,0 0.0017,0.002 0.0024,0.009 0.0039,0.013 0.002,0.0281 0.0081,0.006 0.01184,0.013 0.0016,0.002 0.0023,0.0108 0.0039,0.013 0.0023,0.004 0.0055,-0.004 0.0079,0 0.01805,0.0291 -0.01674,-0.004 0.01184,0.0255 0.0025,0.002 0.0053,0 0.0079,0 0.0079,0 0.01578,0 0.02367,0"
         style="fill:none;stroke:#000000;stroke-width:0.31777695px;stroke-linecap:butt;stroke-linejoin:miter;stroke-opacity:1" />
      <path
         d="m 345,388.5918 -25,127.85742 c 2.17791,0 0.0102,-0.72507 0.71484,-1.42969 0.16837,-0.16819 0.54452,0.16819 0.71289,0 0.35713,-0.35713 -0.35716,-1.78541 0,-2.14258 0.16836,-0.16819 0.54651,0.16819 0.71485,0 0.35716,-0.35716 -0.35713,-1.78542 0,-2.14257 0.16836,-0.16819 0.5465,0.16855 0.71484,0 0.16838,-0.16835 -0.16834,-0.54666 0,-0.71485 0.16836,-0.16857 0.54651,0.16819 0.71485,0 0.33671,-0.33675 -0.21294,-1.00182 0,-1.42773 0.15059,-0.30116 0.56231,-0.41362 0.71289,-0.71485 0.14158,-0.2832 -0.14604,-1.9967 0,-2.14257 0.16836,-0.16819 0.5465,0.16817 0.71484,0 0.17189,-0.1719 -0.17189,-2.68546 0,-2.85743 0.16835,-0.16819 0.5465,0.16819 0.71484,0 0.22118,-0.22117 -0.22117,-3.35116 0,-3.57226 0.16836,-0.16819 0.54455,0.16856 0.71289,0 0.0287,-0.0287 0,-2.59317 0,-2.85547 0,-1.97798 0.71485,0.54829 0.71485,-1.42969 0,-0.33679 -0.0325,-3.5363 0,-3.57031 0.16836,-0.16819 0.5465,0.16857 0.71484,0 0.19544,-0.19544 -0.19374,-2.46991 0,-2.85742 0.15058,-0.30116 0.56427,-0.41362 0.71485,-0.71485 0.21297,-0.42591 -0.33672,-1.09098 0,-1.42773 0.16835,-0.16857 0.54455,0.16819 0.71289,0 0.17189,-0.17189 -0.1719,-2.68545 0,-2.85742 0.16836,-0.16819 0.5465,0.16856 0.71484,0 0.33672,-0.33668 -0.33672,-1.09293 0,-1.42969 0.16835,-0.16857 0.54647,0.16819 0.71484,0 0.14604,-0.14604 -0.14162,-1.85949 0,-2.14258 0.15059,-0.30119 0.56232,-0.41361 0.71289,-0.71484 0.21298,-0.42592 -0.33671,-1.09098 0,-1.42774 0.16836,-0.16819 0.54647,0.16857 0.71485,0 0.33672,-0.33671 -0.33672,-1.09098 0,-1.42773 0.16836,-0.16819 0.54646,0.16857 0.71484,0 0.17189,-0.17186 -0.17189,-2.68545 0,-2.85742 0.16836,-0.16819 0.54651,0.16856 0.71485,0 0.16837,-0.16834 0,-0.47674 0,-0.71485 0,-0.49682 -0.12915,-3.31374 0,-3.57226 0.15059,-0.30116 0.56231,-0.41166 0.71289,-0.71289 0.21687,-0.4337 -0.21687,-3.85341 0,-4.28711 0.15058,-0.30119 0.56426,-0.41166 0.71484,-0.71289 0.10647,-0.21298 0,-0.47674 0,-0.71485 v -0.71484 -4.28516 -9.28515 -0.71485 c 0,-0.23811 -0.16834,-0.54665 0,-0.71484 0.16835,-0.16819 0.60837,0.21279 0.71484,0 0.13399,-0.26797 0,-3.85988 0,-4.28516 0,-0.23807 -0.10647,-0.50168 0,-0.71484 0.88264,-1.7653 0.71289,0.24738 0.71289,-1.42773 0,-0.2623 -0.0287,-2.82719 0,-2.85743 0.16836,-0.16856 0.54651,0.16819 0.71485,0 0.33672,-0.33671 -0.15058,-0.97596 0,-1.42773 0.16836,-0.50506 0.5465,-0.92463 0.71484,-1.42969 0.13126,-0.39383 -0.15269,-2.70473 0,-2.85742 0.16836,-0.16819 0.54651,0.16819 0.71485,0 0.16834,-0.16834 0,-0.47478 0,-0.71289 v -0.71484 c 0,-0.71932 -0.13168,-3.89016 0,-4.28516 0.10648,-0.31945 0.60642,-0.39548 0.71289,-0.71484 0.15057,-0.45177 0,-0.95347 0,-1.42969 0,-0.23807 -0.10647,-0.49973 0,-0.71289 0.15059,-0.30116 0.56426,-0.41362 0.71484,-0.71485 0.10647,-0.21297 0,-0.47673 0,-0.71484 0,-0.71932 -0.13168,-3.89016 0,-4.28516 0.10648,-0.31944 0.60837,-0.39547 0.71484,-0.71484 0.23668,-0.71002 -0.30345,-2.96336 0,-3.57031 0.10648,-0.21279 0.54455,0.16856 0.71289,0 0.16834,-0.16834 -0.10646,-0.50206 0,-0.71485 0.15058,-0.30115 0.56427,-0.41361 0.71485,-0.71484 0.0939,-0.18781 0,-2.48401 0,-2.85742 v -1.42774 c 0,-0.47618 -0.15058,-0.97596 0,-1.42773 0.10648,-0.31945 0.60837,-0.39548 0.71484,-0.71484 0.35713,-1.07143 -0.35713,-2.50085 0,-3.57227 0.21296,-0.63885 1.35336,-0.75843 1.42774,-1.42773 0.44775,-4.02985 0.47673,-8.09494 0.71484,-12.14258 z"
         style="fill:none;stroke:#000000;stroke-width:0.99999994px;stroke-linecap:butt;stroke-linejoin:miter;stroke-opacity:1"
         transform="scale(0.26458333)"
         id="path4573"
         inkscape:connector-curvature="0" />
      <path
         d="m 285.53516,415.70703 c -0.25896,0 -0.51731,0.008 -0.53516,0.0254 -0.0842,0.0843 0.0842,0.27314 0,0.35742 -0.73894,0.73894 0.0282,-1.12895 -0.71484,0.35743 -0.0532,0.10658 0.0532,0.25083 0,0.35742 -0.0753,0.15042 -0.28018,0.20699 -0.35547,0.35742 -0.0532,0.10658 0.0842,0.27314 0,0.35742 -0.0842,0.0843 -0.27325,-0.0843 -0.35742,0 -0.0842,0.0843 0.0532,0.25084 0,0.35742 -0.0753,0.15043 -0.28214,0.207 -0.35743,0.35743 -0.0532,0.10657 0.0532,0.24888 0,0.35546 -0.0753,0.15043 -0.28209,0.207 -0.35742,0.35743 -0.0532,0.10658 0.0842,0.27313 0,0.35742 -0.0842,0.0843 -0.27325,-0.0843 -0.35742,0 -0.16838,0.16819 0.10647,0.50186 0,0.71484 -1.18449,1.18447 0.16805,-0.33617 -0.35742,0.71485 -0.74317,1.48636 0.026,-0.38347 -0.71289,0.35546 -0.16834,0.16819 0.16834,0.54647 0,0.71485 -0.0842,0.0843 -0.27325,-0.0843 -0.35742,0 -0.16834,0.16819 0.16834,0.5465 0,0.71484 -0.0842,0.0843 -0.27326,-0.0843 -0.35743,0 -0.16837,0.16857 0.16834,0.5465 0,0.71485 -0.0842,0.0843 -0.27321,-0.0843 -0.35742,0 -0.16838,0.16855 0.16834,0.54455 0,0.71289 -0.73894,0.73893 0.0282,-1.12896 -0.71484,0.35742 -0.10647,0.21278 0.16834,0.5465 0,0.71484 -0.0842,0.0843 -0.27322,-0.0843 -0.35742,0 -0.0842,0.0843 0,0.23837 0,0.35742 0,0.13115 -0.0144,1.41338 0,1.42774 0.73895,0.73897 -0.0282,-1.12892 0.71484,0.35742 0.0532,0.10658 -0.0842,0.27314 0,0.35742 0.16838,0.16857 0.54648,-0.16819 0.71484,0 0.0842,0.0843 -0.0842,0.27314 0,0.35742 0.0842,0.0843 0.25096,-0.0533 0.35743,0 0.15057,0.0752 0.20684,0.28221 0.35742,0.35743 0.10647,0.0533 0.2713,-0.0843 0.35547,0 0.0842,0.0843 -0.0842,0.27313 0,0.35742 0.0842,0.0843 0.25091,-0.0533 0.35742,0 0.15057,0.0752 0.20684,0.28025 0.35742,0.35547 0.10647,0.0533 0.2384,0 0.35742,0 0.11906,0.11905 0.20681,0.2822 0.35742,0.35742 0.10647,0.0533 0.27326,-0.0843 0.35743,0 0.0842,0.0843 -0.0842,0.27314 0,0.35742 0.16834,0.16819 0.49994,-0.10658 0.71289,0 1.48634,0.74317 -0.38154,-0.0259 0.35742,0.71484 0.0842,0.0843 0.25095,-0.0533 0.35742,0 0.15058,0.0752 0.20685,0.28221 0.35742,0.35743 0.10647,0.0533 0.25092,-0.0533 0.35742,0 0.15058,0.0752 0.20685,0.2822 0.35743,0.35742 0.10646,0.0533 0.27129,-0.0843 0.35546,0 0.0842,0.0843 0,0.23641 0,0.35547 0.11906,0 0.27326,-0.0843 0.35743,0 0.0842,0.0843 -0.0842,0.27313 0,0.35742 0.16834,0.16856 0.54648,-0.16819 0.71484,0 0.0842,0.0843 -0.0842,0.27314 0,0.35742 0.16838,0.16857 0.54648,-0.16819 0.71484,0 0.0842,0.0843 -0.0842,0.27314 0,0.35742 0.16834,0.16819 0.54454,-0.16857 0.71289,0 0.0842,0.0843 -0.0842,0.27314 0,0.35742 0.16834,0.16857 0.54649,-0.16819 0.71485,0 0.0842,0.0843 -0.0532,0.25084 0,0.35743 0.39483,0.78964 0.22223,0.11099 0.71484,0.35742 0.15058,0.0752 0.20681,0.28025 0.35742,0.35547 0.10647,0.0533 0.27326,-0.0843 0.35743,0 0.0842,0.0843 -0.0842,0.27313 0,0.35742 0.16834,0.16819 0.49994,-0.10659 0.71289,0 1.48634,0.74317 -0.38154,-0.0259 0.35742,0.71484 0.17858,0.17839 0.89368,-0.17877 1.07226,0 0.0842,0.0843 -0.0842,0.27314 0,0.35742 0.16834,0.16857 0.49993,-0.10658 0.71289,0 0.15058,0.0752 0.20685,0.28221 0.35743,0.35743 0.14162,0.0707 0.99925,-0.0729 1.07226,0 0.0842,0.0843 -0.0842,0.27313 0,0.35742 0.0842,0.0843 0.27322,-0.0843 0.35742,0 0.0842,0.0843 -0.0842,0.27314 0,0.35742 0.17859,0.17877 0.89175,-0.17839 1.07032,0 0.0842,0.0843 -0.0842,0.27118 0,0.35547 0.17858,0.17839 0.89369,-0.17877 1.07226,0 0.0842,0.0843 -0.0842,0.27314 0,0.35742 0.0842,0.0843 0.23837,0 0.35742,0 0.23811,0 0.49994,-0.10658 0.71289,0 0.10647,0.0533 -0.0842,0.27314 0,0.35742 0.0842,0.0843 0.27326,-0.0843 0.35743,0 0.0842,0.0843 -0.0842,0.27314 0,0.35742 0.17858,0.1784 0.89369,-0.17877 1.07226,0 0.0842,0.0843 -0.0842,0.27314 0,0.35743 0.16838,0.16855 0.54648,-0.16819 0.71485,0 0.0842,0.0843 -0.0842,0.27313 0,0.35742 0.17858,0.17839 0.89174,-0.1784 1.07031,0 0.0842,0.0843 -0.0842,0.27314 0,0.35742 0.0842,0.0843 0.24449,-0.0378 0.35742,0 0.25255,0.0843 0.4623,0.27314 0.71484,0.35742 0.11294,0.0378 0.25096,-0.0533 0.35743,0 0.15057,0.0752 0.20489,0.28026 0.35546,0.35547 0.14162,0.0707 0.99926,-0.0729 1.07227,0 0.0842,0.0843 -0.0842,0.27314 0,0.35742 0.17858,0.17877 0.8937,-0.17839 1.07227,0 0.73893,0.73897 -1.13086,-0.0297 0.35546,0.71485 0.22447,0.11224 1.20522,-0.11226 1.42969,0 0.15058,0.0752 0.20681,0.2822 0.35742,0.35742 0.10647,0.0533 0.23841,0 0.35743,0 0.23811,0 0.49994,-0.10659 0.71289,0 0.10647,0.0533 -0.0842,0.27314 0,0.35742 0.073,0.0729 0.93066,-0.0707 1.07226,0 0.30115,0.15042 0.41367,0.56231 0.71485,0.71289 0.21293,0.10658 0.49994,-0.10658 0.71289,0 0.15057,0.0752 0.2068,0.28221 0.35742,0.35742 0.28569,0.14287 0.78654,-0.14286 1.07226,0 0.76418,0.38211 -0.0513,0.33277 0.71289,0.71485 0.14162,0.0707 0.99926,-0.0729 1.07227,0 0.0842,0.0843 -0.0842,0.27313 0,0.35742 0.073,0.0729 0.93066,-0.0707 1.07227,0 0.15057,0.0752 0.20489,0.28221 0.35546,0.35742 0.14162,0.0707 0.99926,-0.073 1.07227,0 0.0842,0.0843 -0.0842,0.27314 0,0.35742 0.0842,0.0843 0.25095,-0.0533 0.35742,0 0.15058,0.0752 0.20681,0.28026 0.35742,0.35547 0.19374,0.0968 1.33002,-0.0979 1.42774,0 0.0842,0.0843 -0.0842,0.27314 0,0.35742 0.0977,0.0979 1.23594,-0.0967 1.42969,0 0.15057,0.0752 0.20489,0.28221 0.35546,0.35742 0.10224,0.051 1.59632,0 1.78711,0 0.11906,0 0.27326,-0.0843 0.35743,0 0.0842,0.0843 -0.0842,0.27314 0,0.35743 0.0842,0.0843 0.23645,0 0.35546,0 h 0.35743 c 0.24842,0 1.65794,-0.0646 1.78711,0 0.15057,0.0752 0.20489,0.2822 0.35546,0.35742 0.19374,0.0968 1.33197,-0.0979 1.42969,0 0.0842,0.0843 -0.0842,0.27314 0,0.35742 0.0977,0.0975 1.23399,-0.0968 1.42774,0 0.15057,0.0752 0.2068,0.28221 0.35742,0.35742 0.2253,0.11263 1.55984,-0.11263 1.78515,0 0.15058,0.0752 0.20685,0.28221 0.35743,0.35742 0.28573,0.14287 0.78655,-0.14286 1.07226,0 0.15058,0.0752 0.20681,0.28026 0.35742,0.35547 0.2253,0.11263 1.55985,-0.11263 1.78516,0 0.15058,0.0752 0.20685,0.28221 0.35742,0.35742 0.0939,0.0469 1.24099,0 1.42774,0 l 1.01172,-20.54101 c -0.35562,0.41998 -1.39035,-0.86538 -1.72461,-0.53125 -0.0842,0.0843 0.0842,0.27314 0,0.35742 -0.073,0.0729 -0.93067,-0.0707 -1.07227,0 -1.48634,0.74317 0.3815,-0.0259 -0.35742,0.71484 -0.0842,0.0843 -0.23837,0 -0.35742,0 -0.19079,0 -1.68294,-0.051 -1.78516,0 -0.15058,0.0752 -0.20685,0.28221 -0.35742,0.35743 -0.21687,0.10846 -1.92571,-0.10848 -2.14258,0 -0.15058,0.0752 -0.20685,0.2822 -0.35742,0.35742 -0.1138,0.0571 -1.46597,0 -1.78516,0 h -4.28515 -2.85743 c -0.24661,0 -1.32109,0.0544 -1.42968,0 -0.30116,-0.15043 -0.41173,-0.56427 -0.71289,-0.71485 -0.28574,-0.14286 -0.78656,0.14287 -1.07227,0 -0.15058,-0.0752 -0.1977,-0.30413 -0.35742,-0.35742 -0.16335,-0.0544 -1.26881,0.0794 -1.42774,0 -0.15057,-0.0752 -0.2068,-0.28221 -0.35742,-0.35742 -0.28569,-0.14287 -0.78655,0.14287 -1.07226,0 -0.15058,-0.0752 -0.20685,-0.28221 -0.35743,-0.35742 -0.28569,-0.14287 -0.78459,0.14286 -1.07031,0 -0.15057,-0.0752 -0.20684,-0.28026 -0.35742,-0.35547 -0.22447,-0.11225 -1.20326,0.11225 -1.42773,0 -0.30116,-0.15043 -0.39541,-0.60839 -0.71485,-0.71484 -0.22586,-0.0752 -0.47675,-1e-5 -0.71484,0 -0.11906,0 -0.25092,0.0533 -0.35742,0 -1.18449,-1.18447 0.33811,0.16831 -0.71289,-0.35743 -0.15058,-0.0752 -0.1977,-0.30413 -0.35743,-0.35742 -0.002,-5.3e-4 -1.07192,3.4e-4 -1.07226,0 -0.0842,-0.0843 0.10647,-0.30413 0,-0.35742 -1.62582,0 -0.0193,0.16793 -1.07031,-0.35742 -0.21294,-0.10659 -0.54649,0.16819 -0.71485,0 -0.0842,-0.0843 0.0842,-0.27314 0,-0.35742 -0.16834,-0.16819 -0.54648,0.16818 -0.71484,0 -0.0842,-0.0843 0.0842,-0.27119 0,-0.35547 -0.16834,-0.16819 -0.50188,0.10658 -0.71485,0 -0.15057,-0.0752 -0.20489,-0.28222 -0.35546,-0.35742 -0.21298,-0.10659 -0.50189,0.10657 -0.71485,0 -0.15057,-0.0752 -0.20684,-0.28221 -0.35742,-0.35743 -0.10647,-0.0533 -0.24449,0.0378 -0.35742,0 -0.25255,-0.0843 -0.46231,-0.27314 -0.71485,-0.35742 -0.22586,-0.0752 -0.49992,0.10658 -0.71289,0 -0.15057,-0.0752 -0.2068,-0.28221 -0.35742,-0.35742 -0.21297,-0.10658 -0.50188,0.10658 -0.71484,0 -0.30115,-0.15043 -0.41367,-0.56423 -0.71485,-0.71484 -0.21293,-0.10659 -0.54453,0.16856 -0.71289,0 -0.0842,-0.0843 0.0842,-0.27119 0,-0.35547 -0.17858,-0.17877 -0.89369,0.17839 -1.07226,0 -0.0842,-0.0843 0.0842,-0.27315 0,-0.35742 -0.0859,-0.0858 -1.3418,0.0858 -1.42774,0 -0.0842,-0.0843 0.0842,-0.27314 0,-0.35743 -0.0859,-0.0858 -1.34374,0.0858 -1.42968,0 -0.0842,-0.0843 0.0842,-0.27314 0,-0.35742 -0.0842,-0.0843 -0.27326,0.0843 -0.35743,0 -0.0842,-0.0843 0.0842,-0.27314 0,-0.35742 -0.0859,-0.0858 -1.34179,0.0858 -1.42773,0 -0.0842,-0.0843 0.0842,-0.27314 0,-0.35742 -0.073,-0.0729 -0.93066,0.0707 -1.07227,0 -0.15057,-0.0752 -0.20489,-0.28221 -0.35546,-0.35742 -0.10647,-0.0533 -0.25096,0.0533 -0.35743,0 -0.15057,-0.0752 -0.2068,-0.28221 -0.35742,-0.35743 -0.10647,-0.0533 -0.27325,0.0843 -0.35742,0 -0.0842,-0.0843 0.0842,-0.27119 0,-0.35546 -0.0842,-0.0843 -0.27325,0.0843 -0.35742,0 -0.0842,-0.0843 0.0842,-0.27314 0,-0.35743 -0.16834,-0.16819 -0.50188,0.10659 -0.71485,0 -0.15057,-0.0752 -0.20489,-0.28221 -0.35546,-0.35742 -0.10647,-0.0533 -0.27326,0.0843 -0.35743,0 -0.0842,-0.0843 0.0532,-0.25084 0,-0.35742 -0.0753,-0.15043 -0.23836,-0.23837 -0.35742,-0.35742 -0.11905,-0.11906 -0.20684,-0.28221 -0.35742,-0.35742 -0.10647,-0.0533 -0.25095,0.0533 -0.35742,0 -0.15058,-0.0752 -0.20681,-0.28221 -0.35742,-0.35743 -0.21294,-0.10658 -0.54454,0.16819 -0.71289,0 -0.0842,-0.0843 0.0842,-0.27313 0,-0.35742 -0.0178,-0.017 -0.27816,-0.0254 -0.53711,-0.0254 z m 52.26172,11.62891 c 0.12664,-0.14958 0.16978,-0.51015 0.0605,-1.24414 z m -20.0293,2.31445 c 0.83607,-0.0136 1.53032,0.46229 1.80664,1.0957 0.94124,0.27483 1.48139,0.77559 1.49609,2.05274 0.46476,0.47217 0.7412,1.08486 0.67774,1.94336 0.36674,0.0782 0.73294,0.15728 1.09375,0.25976 0.0549,0.0156 0.13364,0.0587 0.20508,0.0937 0.006,1.2e-4 0.009,-1.4e-4 0.0156,0 0.0624,0.001 0.12315,0.003 0.18555,0.004 -0.008,0.0819 -0.0982,0.0468 -0.20117,-0.004 -3.48758,-0.0645 4.19652,3.07868 0.69335,3.50586 -0.18723,0.0227 -0.3733,0.0457 -0.56054,0.0684 -0.78086,-0.0563 -0.70465,-3.6e-4 -1.44336,-0.25 -0.10434,-0.0352 -0.34894,-0.0741 -0.36524,-0.1289 -0.28544,-0.0285 -0.56623,-0.0621 -0.59375,-0.0566 -10e-4,-3.9e-4 -0.006,-0.002 -0.008,-0.002 -0.12514,0.26561 -0.25948,0.48644 -0.40625,0.56836 -0.14314,0.23986 -0.2504,0.40124 -0.13281,0.16211 -0.28713,0.28951 -0.55201,0.60352 -0.86133,0.86914 -0.10212,0.0877 -0.23456,0.13433 -0.36133,0.17969 -0.92129,0.32995 -1.32455,0.42331 -2.21093,0.34766 -1.12491,-0.0146 -2.19252,0.30405 -3.22071,-0.33594 -0.0546,-0.0172 -0.12574,-0.0414 -0.16406,-0.0508 -0.52556,-0.12737 -0.96555,-0.50648 -1.53516,-0.49805 -0.27859,-0.17499 -0.63635,-0.26189 -0.83593,-0.52344 -0.76723,-1.00539 -0.70736,-1.62565 -0.64844,-2.67969 -0.0325,-0.43717 -0.1686,-0.87481 -0.1582,-1.31445 0.0196,-0.82926 0.25863,-1.56691 0.80468,-2.19726 0.17171,-0.17814 0.32679,-0.37382 0.51367,-0.53516 0.32182,-1.02989 0.51842,-1.23877 2.00782,-1.84961 0.70289,-0.004 1.4067,-0.003 2.10937,0.0195 0.13551,-0.001 0.27037,-0.0103 0.40625,-0.0176 0.56678,-0.49328 1.1553,-0.71787 1.69141,-0.72656 z m -6.24414,2.66797 c -0.0248,0.0376 -0.055,0.0777 -0.0645,0.10352 -0.0437,0.12017 -0.12256,0.49737 -0.0859,0.375 0.0603,-0.20173 0.10201,-0.32028 0.15039,-0.47852 z"
         style="fill:none;stroke:#000000;stroke-width:0.99999994px;stroke-linecap:butt;stroke-linejoin:miter;stroke-opacity:1"
         transform="scale(0.26458333)"
         id="path4587"
         inkscape:connector-curvature="0" />
      <g
         transform="rotate(-94.036094,74.9042,100.86528)"
         id="g5646">
        <path
           style="fill:none;stroke:#000000;stroke-width:0.26458332px;stroke-linecap:butt;stroke-linejoin:miter;stroke-opacity:1"
           d="m 80.036455,98.84598 c -0.0315,0 -0.09449,0.0315 -0.09449,0 0,-0.0315 0.123738,0.0117 0.09449,0 -0.18496,-0.07398 -0.383858,-0.110514 -0.566963,-0.188987 -0.08189,-0.03509 -0.109302,-0.149145 -0.188986,-0.188989 -0.05635,-0.02817 -0.132644,0.02817 -0.18899,0 -0.03984,-0.01992 -0.05223,-0.08041 -0.09449,-0.09449 -0.05976,-0.01992 -0.132643,0.02817 -0.188989,0 -0.02817,-0.01408 0.02228,-0.07222 0,-0.09449 -0.02228,-0.02228 -0.07222,0.02228 -0.09449,0 -0.195512,-0.195514 0.298767,0.0076 -0.09449,-0.18899 -0.251983,0 0.0315,0.0315 -0.0945,-0.09449 -0.04454,-0.04454 -0.144441,0.04454 -0.188986,0 -0.02228,-0.02228 0.02228,-0.07222 0,-0.0945 -0.195511,-0.195511 0.0076,0.298768 -0.188989,-0.09449 -0.01408,-0.02817 0.02228,-0.07222 0,-0.09449 -0.04455,-0.04455 -0.144442,0.04454 -0.188987,0 -0.02228,-0.02228 0.02228,-0.07222 0,-0.09449 -0.02228,-0.02228 -0.07222,0.02228 -0.0945,0 -0.04454,-0.04454 0.02817,-0.132643 0,-0.188989 -0.01992,-0.03984 -0.07457,-0.05465 -0.09449,-0.09449 -0.02817,-0.05635 0.04454,-0.144444 0,-0.18899 -0.04454,-0.04454 -0.144444,0.04455 -0.188987,0 -0.003,-0.003 0,-0.260564 0,-0.283482 0,-0.157491 0,-0.314979 0,-0.472469 0,-0.0315 -0.02228,-0.07222 0,-0.09449 0.02228,-0.02228 0.07222,0.02228 0.09449,0 0.04454,-0.04455 -0.04455,-0.144444 0,-0.18899 0.02228,-0.02228 0.07222,0.02228 0.09449,0 0.02228,-0.02228 -0.02228,-0.07222 0,-0.09449 0.02228,-0.02228 0.07222,0.02228 0.09449,0 0.195514,-0.195511 -0.298767,0.0076 0.0945,-0.188989 0.02817,-0.01408 0.07222,0.02228 0.09449,0 0.02228,-0.02228 -0.02228,-0.07222 0,-0.09449 0.02228,-0.02228 0.06632,0.01408 0.09449,0 0.03984,-0.01992 0.05465,-0.07457 0.0945,-0.09449 0.05634,-0.02817 0.144441,0.04454 0.188986,0 0.02228,-0.02228 -0.02228,-0.07222 0,-0.0945 0.01931,-0.01931 0.246018,0.01873 0.283483,0 0.03984,-0.01992 0.05465,-0.07457 0.09449,-0.09449 0.02817,-0.01408 0.06632,0.01408 0.0945,0 0.03984,-0.01992 0.05465,-0.07457 0.09449,-0.09449 0.02876,-0.01437 0.240927,0 0.283483,0 0.188986,0 0.377976,0 0.566962,0 0.0315,0 0.063,0 0.0945,0 0.0315,0 0.07222,0.02228 0.09449,0 0.02228,-0.02228 -0.02228,-0.07222 0,-0.0945 0.02228,-0.02228 0.063,0 0.09449,0 0.0315,0 0.063,0 0.0945,0 0.44097,0 0.881943,0 1.322916,0 0.0315,0 0.063,0 0.09449,0 0.0315,0 0.07222,-0.02228 0.09449,0 0.02228,0.02228 -0.02228,0.07222 0,0.0945 0.04454,0.04454 0.132643,-0.02817 0.188989,0 0.03984,0.01992 0.05465,0.07457 0.09449,0.09449 0.02817,0.01408 0.063,0 0.09449,0 0.0315,0.0315 0.05465,0.07457 0.0945,0.09449 0.02817,0.01408 0.06632,-0.01408 0.09449,0 0.393261,0.196631 -0.101018,-0.0065 0.09449,0.18899 0.02228,0.02228 0.07222,-0.02228 0.09449,0 0.02228,0.02228 -0.02228,0.07222 0,0.09449 0.04455,0.04454 0.144444,-0.04454 0.18899,0 0.02228,0.02228 -0.02228,0.07222 0,0.09449 0.02228,0.02228 0.06632,-0.01408 0.09449,0 0.03984,0.01992 0.063,0.063 0.0945,0.0945 0.0315,0.0315 0.07457,0.05465 0.09449,0.09449 0.01408,0.02817 -0.01408,0.06632 0,0.09449 0.196631,0.393263 -0.0065,-0.101018 0.188987,0.0945 0.04454,0.04454 -0.04454,0.144441 0,0.188986 0.02228,0.02228 0.07222,-0.02228 0.0945,0 0.04725,0.04725 -0.04725,0.236236 0,0.283483 0.02228,0.02228 0.07222,-0.02228 0.09449,0 0.02228,0.02228 0,0.06299 0,0.09449 0,0.0315 0,0.063 0,0.0945 0,0.28348 0,0.566962 0,0.850445 0,0.15749 0,0.314981 0,0.472472 0,0.0315 0.02228,0.07222 0,0.09449 -0.02228,0.02228 -0.07222,-0.02228 -0.09449,0 -0.04455,0.04455 0.04454,0.144444 0,0.188986 -0.04455,0.04455 -0.144444,-0.04454 -0.18899,0 -0.02228,0.02228 0.02228,0.07222 0,0.0945 -0.02228,0.02228 -0.07222,-0.02228 -0.09449,0 -0.02228,0.02228 0.02228,0.07222 0,0.09449 -0.02585,0.02585 -0.326715,-0.02564 -0.377976,0 -0.03984,0.01992 -0.05465,0.07457 -0.0945,0.09449 -0.02817,0.01408 -0.06299,0 -0.09449,0 -0.0315,0 -0.063,0 -0.09449,0 -0.157491,0 -0.314981,0 -0.472472,0 -0.157488,0 -0.314978,0 -0.472469,0 -0.0315,0 -0.07222,-0.02228 -0.09449,0 -0.02228,0.02228 0.02228,0.07222 0,0.0945 -0.02228,0.02228 -0.063,0 -0.0945,0 -0.0315,0 -0.063,0 -0.09449,0 -0.188986,0 -0.377975,0 -0.566965,0 -0.06299,0 -0.12787,0.01527 -0.188986,0 -0.09663,-0.02416 -0.188989,-0.063 -0.283485,-0.0945"
           id="path4597"
           inkscape:connector-curvature="0" />
        <path
           style="fill:none;stroke:#000000;stroke-width:0.26458332px;stroke-linecap:butt;stroke-linejoin:miter;stroke-opacity:1"
           d="m 78.477305,95.585935 4.110492,3.071058 -0.47249,-3.212769 -3.496252,2.64581 z"
           id="path4603"
           inkscape:connector-curvature="0" />
        <path
           style="fill:#ff2a2a;fill-opacity:1;stroke:#000000;stroke-width:0.65129358;stroke-linecap:butt;stroke-linejoin:round;stroke-miterlimit:4;stroke-dasharray:none;stroke-opacity:1;paint-order:markers fill stroke"
           d="m 300.63429,363.54805 c -1.3731,-1.02855 -2.51872,-1.93243 -2.54582,-2.00862 -0.11733,-0.32991 0.99457,-0.55721 2.72571,-0.55721 1.04475,0 1.9043,-0.0781 1.96642,-0.17857 0.17027,-0.27551 5.46355,-0.2221 5.83297,0.0589 0.26063,0.19822 -0.0342,0.4781 -2.39231,2.27111 -1.47927,1.12477 -2.77976,2.09892 -2.88999,2.16478 -0.11023,0.0659 -1.32387,-0.7218 -2.69698,-1.75035 z"
           id="path4605"
           inkscape:connector-curvature="0"
           transform="scale(0.26458333)" />
        <path
           style="fill:#ff2a2a;fill-opacity:1;stroke:#000000;stroke-width:0.65129358;stroke-linecap:butt;stroke-linejoin:round;stroke-miterlimit:4;stroke-dasharray:none;stroke-opacity:1;paint-order:markers fill stroke"
           d="m 301.9168,372.79891 c -0.76973,-0.26851 -1.47262,-0.61885 -1.56198,-0.77852 -0.0894,-0.15968 -0.60467,-0.42941 -1.14513,-0.5994 -0.54047,-0.17 -0.98266,-0.40864 -0.98266,-0.5303 0,-0.12167 1.10957,-1.06752 2.46572,-2.10188 l 2.46573,-1.88066 4.00573,2.97454 4.00574,2.97453 -2.23039,0.13535 c -5.52584,0.33533 -5.50469,0.33591 -7.02276,-0.19366 z"
           id="path4607"
           inkscape:connector-curvature="0"
           transform="scale(0.26458333)" />
        <path
           style="fill:#0000ff;fill-opacity:1;stroke:#000000;stroke-width:0.65129358;stroke-linecap:butt;stroke-linejoin:round;stroke-miterlimit:4;stroke-dasharray:none;stroke-opacity:1;paint-order:markers fill stroke"
           d="m 297.62699,368.62049 c -0.0586,-0.51801 -0.16076,-2.10697 -0.22701,-3.53103 -0.10272,-2.20785 -0.0836,-2.56039 0.13008,-2.3937 0.1378,0.10751 1.23816,0.93605 2.44524,1.84119 l 2.19471,1.64572 -2.01613,1.52737 c -1.10888,0.84005 -2.10708,1.60047 -2.21824,1.68983 -0.1434,0.11527 -0.23304,-0.11109 -0.30865,-0.77938 z"
           id="path4609"
           inkscape:connector-curvature="0"
           transform="scale(0.26458333)" />
        <path
           style="fill:#0000ff;fill-opacity:1;stroke:#000000;stroke-width:0.65129358;stroke-linecap:butt;stroke-linejoin:round;stroke-miterlimit:4;stroke-dasharray:none;stroke-opacity:1;paint-order:markers fill stroke"
           d="m 307.69131,368.81503 c -1.81696,-1.37505 -3.30357,-2.56828 -3.30357,-2.65162 0,-0.16703 5.43687,-4.36362 5.52186,-4.26219 0.0617,0.0737 1.35688,8.88379 1.35465,9.21493 -8.3e-4,0.12277 -0.0618,0.21776 -0.13544,0.21109 -0.0737,-0.007 -1.62053,-1.13716 -3.4375,-2.51221 z"
           id="path4611"
           inkscape:connector-curvature="0"
           transform="scale(0.26458333)" />
        <path
           style="fill:#00ff00;fill-opacity:1;stroke:#000000;stroke-width:0.65129358;stroke-linecap:butt;stroke-linejoin:round;stroke-miterlimit:4;stroke-dasharray:none;stroke-opacity:1;paint-order:markers fill stroke"
           d="m 295.98188,369.2192 c -0.18927,-0.22684 -0.51429,-0.47942 -0.72225,-0.56129 -0.246,-0.0968 -0.46438,-0.44327 -0.625,-0.99149 -0.13579,-0.46344 -0.38751,-0.93078 -0.55939,-1.03851 -0.23877,-0.14967 -0.3125,-0.43853 -0.3125,-1.22436 0,-0.5666 0.0802,-1.02847 0.17857,-1.02847 0.0982,0 0.17857,-0.14174 0.17857,-0.31497 0,-0.29784 1.73184,-2.11986 1.87698,-1.97472 0.1071,0.1071 0.49333,7.05377 0.40664,7.31383 -0.0537,0.16119 -0.18295,0.10601 -0.42162,-0.18002 z"
           id="path4613"
           inkscape:connector-curvature="0"
           transform="scale(0.26458333)" />
        <path
           style="fill:#00ff00;fill-opacity:1;stroke:#000000;stroke-width:0.65129358;stroke-linecap:butt;stroke-linejoin:round;stroke-miterlimit:4;stroke-dasharray:none;stroke-opacity:1;paint-order:markers fill stroke"
           d="m 312.62362,372.09829 c -0.2791,-1.42656 -1.37441,-9.37635 -1.30186,-9.44889 0.22231,-0.22232 1.56451,0.70372 1.79387,1.23766 0.13639,0.31752 0.40037,0.73802 0.58662,0.93445 0.18625,0.19642 0.31222,0.48801 0.27993,0.64796 -0.0323,0.15996 0.0658,0.41538 0.21807,0.56761 0.22376,0.22376 0.27678,0.75807 0.27678,2.78953 0,1.55612 -0.068,2.51275 -0.17857,2.51275 -0.0982,0 -0.17858,0.12054 -0.17858,0.26786 0,0.14732 -0.0681,0.26786 -0.15124,0.26786 -0.0832,0 -0.33656,0.16071 -0.56304,0.35714 -0.54469,0.47241 -0.66747,0.45138 -0.78198,-0.13393 z"
           id="path4615"
           inkscape:connector-curvature="0"
           transform="scale(0.26458333)" />
      </g>
      <path
         transform="scale(0.26458333)"
         inkscape:connector-curvature="0"
         id="path4617"
         d="m 333.71469,358.18247 c -0.43401,-0.47534 -1.10317,-0.68452 -2.18976,-0.68452 -1.36792,0 -1.68441,-0.15689 -2.51606,-1.24723 -0.52321,-0.68597 -1.33068,-1.34244 -1.79436,-1.45882 -0.46367,-0.11637 -0.92354,-0.51941 -1.02193,-0.89563 -0.10439,-0.39918 -0.49026,-0.68404 -0.9266,-0.68404 -0.41125,0 -1.08724,-0.33952 -1.50221,-0.75449 -0.57887,-0.57886 -1.0361,-0.70879 -1.96429,-0.55816 -1.08783,0.17653 -1.20979,0.1116 -1.20979,-0.64407 0,-0.55379 -0.4872,-1.22627 -1.42857,-1.97185 -0.98661,-0.7814 -1.42858,-1.40874 -1.42858,-2.02773 0,-0.59592 -0.23936,-0.95888 -0.71428,-1.08307 -0.39286,-0.10274 -0.71429,-0.48382 -0.71429,-0.84686 0,-0.36303 -0.32143,-0.83209 -0.71428,-1.04234 -0.3978,-0.21289 -0.71429,-0.74779 -0.71429,-1.20721 0,-1.01241 -1.12501,-2.09444 -2.01858,-1.94148 -0.62396,0.10681 -0.66522,-0.3403 -0.75586,-8.19059 -0.0938,-8.12242 -0.0801,-8.30357 0.625,-8.30357 0.39648,0 0.73212,-0.2009 0.74587,-0.44643 0.0138,-0.24554 0.003,-2.81697 -0.023,-5.71429 -0.0464,-5.09997 -0.0245,-5.26786 0.68928,-5.26786 0.4055,0 0.74851,-0.20089 0.76226,-0.44642 0.0138,-0.24554 0.003,-2.81697 -0.023,-5.71429 -0.0456,-5.00782 -0.0135,-5.26786 0.65108,-5.26786 0.92193,0 1.20945,-0.85087 0.92607,-2.74058 -0.21352,-1.42385 -0.17007,-1.54513 0.55357,-1.54513 h 0.78527 l -0.064,-17.41072 c -0.0352,-9.57589 -0.0489,-17.62573 -0.0304,-17.88853 0.025,-0.35642 0.39268,-0.41715 1.44705,-0.23901 1.8034,0.30468 2.87221,-0.0356 2.87221,-0.91438 0,-0.45212 0.2464,-0.69022 0.71428,-0.69022 0.50511,0 0.71429,-0.23809 0.71429,-0.81301 0,-0.72885 0.14336,-0.79934 1.38496,-0.68093 1.11949,0.10676 1.49296,-0.0221 1.94841,-0.67236 0.49744,-0.7102 0.83556,-0.79563 2.88624,-0.72924 2.00202,0.0648 2.38598,-0.026 2.78036,-0.65749 0.42256,-0.67663 0.80621,-0.73268 5.01451,-0.73268 4.31885,0 4.55695,-0.0373 4.55695,-0.71429 0,-0.66663 0.23809,-0.71428 3.5684,-0.71428 3.18162,0 3.61676,-0.0774 4.01448,-0.71429 0.43214,-0.69196 0.83287,-0.71429 12.81852,-0.71429 12.07207,0 12.37697,0.0173 12.55922,0.71429 0.14161,0.54152 0.48715,0.71429 1.42858,0.71429 0.9657,0 1.28589,0.16869 1.4402,0.75878 0.17998,0.68823 0.39333,0.74469 2.29448,0.60718 1.92923,-0.13955 2.0944,-0.0934 2.07537,0.58049 -0.0166,0.58908 0.23383,0.75335 1.28202,0.84078 0.93552,0.078 1.35392,0.30453 1.48442,0.80357 0.13608,0.52037 0.49362,0.69491 1.42351,0.69491 0.94142,0 1.28696,0.17277 1.42857,0.71429 0.12237,0.46795 0.48714,0.71428 1.05773,0.71428 0.47901,0 1.16182,0.32143 1.51736,0.71429 0.35553,0.39285 0.99839,0.71428 1.42857,0.71428 0.43018,0 1.07304,0.32143 1.42857,0.71429 0.35553,0.39286 0.92109,0.71428 1.2568,0.71428 0.47448,0 0.60132,0.2982 0.56965,1.33929 -0.037,1.21518 0.0525,1.34998 0.9659,1.45466 0.62416,0.0715 1.48807,0.64825 2.2737,1.51785 0.69689,0.77137 1.47069,1.40249 1.71957,1.40249 0.24887,0 0.53655,0.32143 0.63929,0.71429 0.10274,0.39285 0.42416,0.71428 0.71429,0.71428 0.29012,0 0.61155,0.32143 0.71428,0.71429 0.10274,0.39285 0.42417,0.71428 0.71429,0.71428 0.29012,0 0.61155,0.32143 0.71428,0.71429 0.10943,0.41847 0.48715,0.71428 0.91206,0.71428 0.63163,0 0.69865,0.16401 0.51912,1.27036 -0.17417,1.07329 -0.0927,1.30001 0.52515,1.46159 0.40221,0.10518 0.81147,0.49781 0.90945,0.8725 0.098,0.3747 0.41553,0.68127 0.70565,0.68127 0.29012,0 0.61155,0.32143 0.71429,0.71428 0.10273,0.39286 0.42416,0.71429 0.71428,0.71429 0.29012,0 0.61155,0.32143 0.71429,0.71429 0.10273,0.39285 0.44291,0.71428 0.75594,0.71428 0.31303,0 0.56915,0.14838 0.56915,0.32974 0,0.18136 0.40128,0.80664 0.89174,1.38952 0.66948,0.79564 0.84055,1.31569 0.68637,2.08661 -0.15001,0.75005 0.0183,1.31122 0.62453,2.08188 0.55559,0.70631 0.83042,1.53078 0.83149,2.49436 10e-4,1.36241 0.0636,1.4453 1.1623,1.55123 0.9995,0.0964 1.16071,0.24766 1.16071,1.08929 0,1.10752 0.57519,1.83451 1.45145,1.83451 0.4559,0 0.58482,0.3119 0.55357,1.33929 -0.0336,1.1062 0.0904,1.358 0.71267,1.44684 0.61994,0.0885 0.74647,0.34156 0.71429,1.42857 -0.0326,1.09966 0.0912,1.33957 0.73852,1.43175 0.67636,0.0963 0.75124,0.27337 0.57496,1.35963 -0.17044,1.05032 -0.0864,1.27932 0.52863,1.44015 0.40222,0.10518 0.81147,0.49781 0.90946,0.87251 0.10486,0.40102 0.49079,0.68126 0.93817,0.68126 0.70133,0 0.74246,0.13244 0.53255,1.71481 -0.20137,1.51798 -0.11718,1.8459 0.73343,2.85679 0.82153,0.97633 0.92626,1.34709 0.72205,2.55585 -0.30244,1.7901 0.0347,2.87255 0.89464,2.87255 0.5863,0 0.6618,0.25803 0.60094,2.05358 -0.0629,1.85468 0.005,2.06416 0.69766,2.16293 0.71086,0.10133 0.76339,0.30168 0.71429,2.72481 l -0.053,2.61544 -2.70414,-0.18219 c -3.37368,-0.22729 -4.26015,0.16163 -4.26015,1.86909 0,0.9088 0.45177,1.81539 1.77737,3.56675 2.53858,3.35392 2.68651,3.68602 1.70409,3.82556 -0.68042,0.0966 -0.80313,0.33358 -0.80447,1.55336 -10e-4,0.95647 -0.2753,1.78728 -0.81749,2.47656 -0.58988,0.74991 -0.7564,1.30812 -0.60113,2.01506 0.18159,0.82678 0.0872,0.9959 -0.61109,1.09486 -0.61224,0.0868 -0.87204,0.40519 -1.00442,1.23104 -0.10723,0.66892 -0.63469,1.49565 -1.3202,2.06926 -0.6279,0.52539 -1.2414,1.26964 -1.36335,1.65387 -0.12195,0.38422 -0.44114,0.6986 -0.70931,0.6986 -0.26817,0 -0.5896,0.32142 -0.71429,0.71428 -0.12468,0.39286 -0.44611,0.71429 -0.71428,0.71429 -0.26817,0 -0.5896,0.32143 -0.71429,0.71428 -0.12469,0.39286 -0.44611,0.71429 -0.71428,0.71429 -0.61299,0 -1.01327,1.20084 -0.71429,2.14286 0.17276,0.54431 0.0642,0.71428 -0.45629,0.71428 -0.37565,0 -0.97389,0.32143 -1.32942,0.71429 -0.45271,0.50024 -1.09999,0.71428 -2.16,0.71428 -1.45799,0 -2.25452,0.6423 -1.76958,1.42695 0.0989,0.16008 -0.76705,0.2052 -1.92443,0.10025 -1.91846,-0.17396 -2.12563,-0.12365 -2.34565,0.56957 -0.13273,0.4182 -0.42104,0.76038 -0.64068,0.76038 -0.21964,0 -0.77735,0.35511 -1.23936,0.78915 -0.61397,0.5768 -1.19865,0.76326 -2.17283,0.69292 -1.0238,-0.0739 -1.52,0.10301 -2.14015,0.76313 -0.77148,0.8212 -0.96373,0.85183 -4.32941,0.68976 -3.35293,-0.16145 -3.53367,-0.13309 -3.76335,0.59057 -0.31195,0.98287 -1.73196,1.00707 -2.69313,0.0459 -0.39286,-0.39285 -1.12248,-0.71428 -1.62138,-0.71428 -0.49889,0 -1.53713,0.32143 -2.3072,0.71428 -1.69336,0.86389 -2.81386,0.90999 -3.37765,0.13897 -0.38681,-0.529 -0.46701,-0.529 -0.99601,0 -0.51705,0.51706 -2.77519,0.57231 -22.29725,0.54556 -20.93125,-0.0287 -21.74469,-0.0547 -22.34694,-0.71429 z"
         style="fill:#ffff00;fill-opacity:1;stroke:#000000;stroke-width:1.30258715;stroke-linecap:butt;stroke-linejoin:round;stroke-miterlimit:4;stroke-dasharray:none;stroke-opacity:1;paint-order:markers fill stroke" />
      <path
         transform="scale(0.26458333)"
         d="m 380.52734,360.70703 c -5.23809,0 -8.57226,0.27834 -8.57226,0.71485 0,0.39284 -0.96401,0.71289 -2.14258,0.71289 -1.17857,0 -2.14258,0.32198 -2.14258,0.71484 0,0.39286 -1.28599,0.71484 -2.85742,0.71484 -1.57143,0 -2.85742,0.32004 -2.85742,0.71289 0,0.39286 -0.5246,0.71485 -1.16602,0.71485 -0.64142,0 -1.75753,0.68207 -2.48047,1.51562 -0.91061,1.04995 -1.86861,1.40897 -3.11914,1.16992 -0.99279,-0.18978 -1.80468,-0.0442 -1.80468,0.32227 0,0.85599 -1.84334,2.70703 -2.69532,2.70703 -0.35946,0 -2.55934,1.84849 -4.88867,4.10742 -2.32932,2.25893 -5.08495,4.54918 -6.125,5.08985 -1.04005,0.54067 -1.7438,1.36933 -1.5625,1.84179 0.1813,0.47247 -0.48599,1.47291 -1.48437,2.22266 -0.99838,0.74976 -1.81641,1.71634 -1.81641,2.14844 0,0.4321 -1.23452,2.08494 -2.74414,3.67187 -1.6701,1.75565 -2.71802,3.53336 -2.67774,4.54297 0.0394,0.98906 -0.51777,1.96295 -1.3789,2.41016 -0.82262,0.42722 -1.33816,1.28893 -1.19727,2.00195 0.13608,0.68869 -0.25751,1.44544 -0.87304,1.68164 -0.77221,0.29634 -0.98467,0.95856 -0.68946,2.13477 0.30511,1.21566 0.0781,1.83912 -0.78906,2.17187 -0.88317,0.33889 -1.10939,0.99602 -0.82812,2.40235 0.23269,1.16347 -0.0544,2.56514 -0.71875,3.51367 -0.60816,0.86821 -0.91171,1.77385 -0.67383,2.01172 0.23788,0.23788 -0.0825,1.21952 -0.71289,2.18164 -0.70005,1.06845 -0.99257,2.51569 -0.75196,3.71875 0.23326,1.16628 -0.0192,2.51633 -0.61914,3.30859 -0.55729,0.73591 -1.02461,2.42976 -1.03711,3.76367 l -0.0215,2.42383 6.96289,-0.41602 c 5.68586,-0.34073 8.70169,-0.92179 12.14258,-2.33593 0.0977,-0.0402 0.53645,-2.77892 0.97461,-6.08594 0.43816,-3.30702 1.0387,-6.3337 1.33398,-6.72656 0.29527,-0.39286 0.75501,-2.95065 1.02344,-5.6836 0.26843,-2.73294 0.8246,-5.3715 1.23437,-5.86523 0.40976,-0.49374 0.92228,-3.48142 1.13868,-6.63867 0.2164,-3.15724 0.70036,-5.74024 1.07617,-5.74024 1.02117,0 0.37813,12.79061 -0.67578,13.44141 -0.47314,0.29218 -0.8807,1.16389 -0.9043,1.9375 -0.10813,3.54643 -0.87266,8.68095 -1.48633,9.97852 -0.63866,1.35038 -1.24309,4.81493 -2.86914,16.42773 -0.84597,6.04169 -0.99295,6.74465 -1.78125,8.57227 -0.33891,0.78569 -0.62748,3.27472 -0.64258,5.5332 -0.0151,2.25848 -0.2698,4.10697 -0.56445,4.10742 -0.29464,4.5e-4 -0.53516,3.05629 -0.53516,6.79102 0,7.24159 -1.67836,20.2933 -2.90429,22.58398 -1.54248,2.88215 -3.74305,10.61918 -5.76367,20.26953 -1.15163,5.5 -2.1767,10.36887 -2.2793,10.82031 -0.10261,0.45144 -0.61476,1.33593 -1.13672,1.96485 -0.52195,0.62891 -0.70866,1.14258 -0.41602,1.14258 0.29263,0 0.13164,0.48298 -0.35742,1.07226 -0.48908,0.58929 -0.67827,1.07031 -0.41992,1.07031 0.25836,0 0.12558,0.64398 -0.29492,1.42969 -0.4205,0.78572 -1.11483,1.42774 -1.54297,1.42774 -1.05601,0 -0.22971,-3.90225 1.54883,-7.31446 0.77139,-1.47995 2.34095,-7.26845 3.48633,-12.86523 1.14537,-5.59679 2.95838,-12.58679 4.02929,-15.5332 3.03099,-8.33924 3.94414,-13.17953 4.39844,-23.31446 0.39369,-8.78265 0.33401,-9.40865 -0.92773,-9.76953 -1.25582,-0.35919 -4.24851,-0.96085 -12.57422,-2.52734 l -3.36719,-0.63477 -0.81055,2.45899 c -0.44618,1.35194 -1.30065,2.6456 -1.89843,2.875 -0.87893,0.33728 -1.00309,1.25034 -0.64649,4.77148 0.3237,3.19627 0.1552,4.90457 -0.63672,6.42187 -0.75496,1.44648 -0.94586,3.07964 -0.63281,5.43946 0.32573,2.45548 0.11291,4.07642 -0.7832,5.96484 -0.80622,1.69895 -1.07872,3.40198 -0.79102,4.93555 0.29853,1.59127 0.0685,2.86909 -0.7168,3.99023 -0.80193,1.14497 -1.0268,2.45446 -0.73437,4.28321 0.27459,1.71717 0.0378,3.37494 -0.68164,4.76171 -0.81149,1.56419 -1.04471,3.77448 -0.87891,8.34571 0.14759,4.06919 -0.0617,6.507 -0.60742,7.05273 -0.4586,0.45863 -0.64558,1.3217 -0.41602,1.91992 0.2344,0.61082 -0.14205,1.49645 -0.85742,2.01954 -0.97235,0.711 -1.16686,1.49776 -0.82422,3.32421 0.30029,1.6007 0.0997,2.85465 -0.60546,3.78711 -0.86252,1.14056 -1.05838,4.63812 -1.07618,19.25 l -0.0215,17.85743 5.53516,0.008 c 3.83727,0.005 6.2793,0.38874 7.96484,1.25 2.10864,1.07746 4.69139,1.24219 19.46484,1.24219 13.13925,0 17.02687,0.20662 17.03321,0.89453 0.008,0.69918 5.42487,0.85162 25.17773,0.70312 13.84844,-0.10412 25.66072,-0.4261 26.25,-0.71484 0.58929,-0.28875 4.44727,-0.60907 8.57227,-0.71289 4.125,-0.10383 7.98103,-0.42054 8.57031,-0.70313 0.58929,-0.28259 2.43778,-0.61796 4.10742,-0.74414 2.58122,-0.19507 3.0362,-0.46363 3.0332,-1.79687 -0.002,-0.86241 0.22661,-2.0494 0.50782,-2.63867 0.28122,-0.58929 0.63305,-1.71431 0.7832,-2.5 0.15014,-0.78571 0.56549,-1.53702 0.92187,-1.66797 0.92218,-0.33889 0.85642,-74.6924 -0.0664,-75 -0.42703,-0.14235 -0.71485,-3.94702 -0.71485,-9.46289 0,-5.67461 -0.27552,-9.22657 -0.71484,-9.22657 -0.42828,0 -0.71289,-2.84396 -0.71289,-7.10156 0,-3.96332 -0.31615,-7.29463 -0.71484,-7.54101 -0.39286,-0.2428 -0.71485,-1.5288 -0.71485,-2.85743 0,-1.32863 -0.32198,-2.61462 -0.71484,-2.85742 -0.39286,-0.2428 -0.71289,-1.54858 -0.71289,-2.90039 0,-1.35182 -0.32199,-2.45703 -0.71485,-2.45703 -0.39286,0 -0.71484,-1.2662 -0.71484,-2.81445 0,-1.54824 -0.32004,-3.01502 -0.71289,-3.25782 -0.39286,-0.2428 -0.71484,-2.01811 -0.71484,-3.94726 0,-2.18354 -0.54037,-4.46937 -1.42969,-6.05274 -0.78571,-1.3989 -1.42774,-3.47766 -1.42774,-4.62109 0,-1.14344 -0.32198,-2.27868 -0.71484,-2.52148 -0.39285,-0.2428 -0.71289,-1.22464 -0.71289,-2.1836 0,-0.95895 -0.32198,-1.74414 -0.71484,-1.74414 -0.39286,0 -0.71485,-0.96401 -0.71485,-2.14258 0,-1.17857 -0.32198,-2.14258 -0.71484,-2.14257 -0.39286,0 -0.71289,-0.64398 -0.71289,-1.42969 0,-0.78572 -0.32199,-1.42774 -0.71485,-1.42774 -0.39286,0 -0.71484,-0.41871 -0.71484,-0.92968 0,-1.31408 -1.67883,-4.7723 -2.32031,-4.7793 -0.29464,-0.003 -0.53711,-0.6479 -0.53711,-1.43359 0,-0.78571 -0.47327,-1.42969 -1.05274,-1.42969 -0.57946,0 -1.71222,-1.44699 -2.51757,-3.21485 -0.80535,-1.76785 -1.86852,-3.21289 -2.36329,-3.21289 -0.85132,0 -3.09715,-3.13557 -4.2246,-5.89843 -0.28409,-0.69618 -1.2481,-1.55406 -2.14258,-1.90625 -0.89447,-0.35219 -2.70683,-1.80409 -4.02735,-3.22657 -1.32052,-1.42247 -3.33,-3.06549 -4.46484,-3.65234 -1.13484,-0.58685 -2.0625,-1.54189 -2.0625,-2.12109 0,-0.86942 -1.49577,-1.05274 -8.57227,-1.05274 z"
         style="fill:#ffff00;fill-opacity:1;stroke:#000000;stroke-width:2.6051743;stroke-linecap:butt;stroke-linejoin:round;stroke-miterlimit:4;stroke-dasharray:none;stroke-opacity:1;paint-order:markers fill stroke"
         id="path4619"
         inkscape:connector-curvature="0" />
      <path
         transform="scale(0.26458333)"
         inkscape:connector-curvature="0"
         id="path4621"
         d="m 335.52737,606.57234 c 0,-1.54277 0.63301,-2.69947 2.19791,-4.01624 2.84135,-2.39085 4.84876,-2.85522 8.25459,-1.90954 6.69699,1.85952 10.56055,0.35366 12.67943,-4.94193 1.21365,-3.03322 2.30705,-12.54471 3.05836,-26.60468 l 0.44848,-8.39286 h 2.03776 2.03775 v 13.88642 c 0,8.48712 -0.27772,14.05806 -0.71428,14.32787 -0.39286,0.2428 -0.71429,1.20709 -0.71429,2.14286 0,0.93577 -0.32143,1.90006 -0.71428,2.14286 -0.39286,0.24279 -0.71429,1.33738 -0.71429,2.43241 0,2.73082 -1.60174,5.68972 -4.6113,8.51847 -1.39236,1.30871 -2.53099,2.59442 -2.5303,2.85715 6.8e-4,0.26272 -4.20336,0.37911 -9.34233,0.25863 -6.41974,-0.15051 -9.66113,0.0445 -10.35839,0.62317 -0.83897,0.69629 -1.01482,0.46676 -1.01482,-1.32459 z"
         style="fill:#ffff00;fill-opacity:1;stroke:#000000;stroke-width:2.6051743;stroke-linecap:butt;stroke-linejoin:round;stroke-miterlimit:4;stroke-dasharray:none;stroke-opacity:1;paint-order:markers fill stroke" />
      <path
         transform="scale(0.26458333)"
         inkscape:connector-curvature="0"
         id="path4623"
         d="m 378.04405,625.47323 -0.80305,-0.75893 -6.48361,-0.003 c -8.16113,-0.004 -12.85778,-0.2094 -19.96575,-0.87387 -4.30012,-0.40199 -6.13852,-0.50174 -7.80524,-0.42352 -2.15025,0.10092 -2.57935,0.0555 -5.6769,-0.60097 -0.6875,-0.14571 -1.83706,-0.36008 -2.55457,-0.4764 l -1.30457,-0.21147 -0.0752,-2.85714 c -0.0414,-1.57143 -0.0272,-3.12234 0.0315,-3.44646 0.1031,-0.56946 0.11533,-0.57698 0.36312,-0.22322 0.31629,0.45157 0.87971,0.47482 1.10933,0.0458 0.0943,-0.17618 0.14073,-0.63906 0.10321,-1.02862 -0.0922,-0.95714 0.10122,-1.26176 0.60242,-0.94876 0.32776,0.2047 0.41124,0.18945 0.64325,-0.11747 0.34492,-0.45628 0.34278,-0.71275 -0.0104,-1.25182 -0.26644,-0.40664 -0.26536,-0.4753 0.0142,-0.90195 0.16643,-0.25399 0.42091,-0.86025 0.56553,-1.34724 0.19475,-0.65579 0.38066,-0.93018 0.7168,-1.05798 0.27331,-0.10391 4.24257,-0.16655 9.97785,-0.15745 6.65868,0.0106 9.63531,-0.0445 9.89401,-0.18292 0.26561,-0.14215 0.37002,-0.37357 0.37002,-0.82015 0,-0.58852 0.0264,-0.61551 0.48788,-0.49967 1.5436,0.38742 2.17208,-0.0726 2.31944,-1.69777 0.0946,-1.04329 0.12246,-1.09645 0.57462,-1.09645 0.61069,0 0.90377,-0.30112 0.90377,-0.92857 0,-0.43565 0.0684,-0.5 0.5316,-0.5 0.79506,0 1.18444,-0.67993 0.95745,-1.67188 -0.2236,-0.97711 -0.14136,-1.18526 0.46825,-1.18526 0.83709,0 0.93467,-0.30496 0.89764,-2.80521 -0.046,-3.10555 -0.0809,-2.90908 0.51605,-2.90908 0.81975,0 0.929,-0.30101 0.90195,-2.48518 l -0.0246,-1.98788 0.73298,-0.79519 0.73299,-0.7952 v -14.11113 -14.11113 h 16.50375 16.50374 l 0.0588,1.38393 c 0.0323,0.76116 0.0186,6.68244 -0.0305,13.1584 -0.0595,7.84525 -0.0283,11.8974 0.0934,12.14286 0.12728,0.25666 0.38989,0.38551 0.86595,0.42486 0.60485,0.05 0.67126,0.10123 0.57869,0.44643 -0.0575,0.21447 -0.10568,4.42789 -0.10702,9.36316 l -0.002,8.97322 h -0.4123 c -0.22676,0 -0.55448,0.10397 -0.72826,0.23104 -0.28369,0.20743 -0.31398,0.5659 -0.29644,3.50818 0.0108,1.80242 0.0583,3.33978 0.10558,3.41636 0.0473,0.0766 -0.52607,1.11158 -1.27421,2.3 -1.19626,1.90026 -1.52423,2.28401 -2.7203,3.18295 -1.57667,1.185 -1.9207,1.53063 -4.39454,4.41504 -2.8164,3.28382 -1.78523,2.90817 -8.17144,2.9768 l -5.4812,0.0589 z"
         style="fill:#ffff00;fill-opacity:1;stroke:#000000;stroke-width:0.65129358;stroke-linecap:butt;stroke-linejoin:round;stroke-miterlimit:4;stroke-dasharray:none;stroke-opacity:1;paint-order:markers fill stroke" />
      <path
         d="m 337.05078,428.20898 c -0.21739,0.006 -0.51305,0.0832 -0.9043,0.19532 -0.89642,0.2569 -5.07471,0.66693 -9.28515,0.91015 -4.21045,0.24322 -7.48591,0.71724 -7.27735,1.05469 0.0723,0.11693 0.0572,0.25046 0.008,0.38477 0.92894,0.27608 1.46392,0.7768 1.47851,2.04492 0.46476,0.47217 0.7412,1.08486 0.67774,1.94336 0.36674,0.0782 0.73294,0.15728 1.09375,0.25976 0.0549,0.0156 0.13364,0.0587 0.20508,0.0937 0.006,1.2e-4 0.009,-1.4e-4 0.0156,0 0.0624,0.001 0.12315,0.003 0.18555,0.004 -0.008,0.0819 -0.0982,0.0468 -0.20117,-0.004 -3.48758,-0.0645 4.19652,3.07868 0.69335,3.50586 -0.18723,0.0227 -0.3733,0.0457 -0.56054,0.0684 -0.78086,-0.0563 -0.70465,-3.6e-4 -1.44336,-0.25 -0.10434,-0.0352 -0.34894,-0.0741 -0.36524,-0.1289 -0.28544,-0.0285 -0.56623,-0.0621 -0.59375,-0.0566 -10e-4,-3.9e-4 -0.006,-0.002 -0.008,-0.002 -0.12514,0.26561 -0.25948,0.48644 -0.40625,0.56836 -0.14314,0.23986 -0.2504,0.40124 -0.13281,0.16211 -0.28713,0.28951 -0.55201,0.60352 -0.86133,0.86914 -0.10212,0.0877 -0.23456,0.13433 -0.36133,0.17969 -0.92129,0.32995 -1.32455,0.42331 -2.21093,0.34766 -0.15279,-0.002 -0.29656,0.0105 -0.44727,0.0176 -0.0225,0.18484 -0.0488,0.36882 -0.0488,0.5625 0,2.24782 1.44156,2.83127 11.42969,4.62891 7.49546,1.34902 7.14258,1.41053 7.14258,-1.23047 0,-1.29246 0.44173,-4.10496 0.98242,-6.25 0.54068,-2.14504 1.19365,-5.30666 1.45117,-7.02539 0.33719,-2.25046 0.3963,-2.87233 -0.25586,-2.85352 z"
         style="fill:#ffff00;fill-opacity:1;stroke:#000000;stroke-width:2.6051743;stroke-linecap:butt;stroke-linejoin:round;stroke-miterlimit:4;stroke-dasharray:none;stroke-opacity:1;paint-order:markers fill stroke"
         transform="scale(0.26458333)"
         id="path4625"
         inkscape:connector-curvature="0" />
      <path
         d="m 285.45508,416.70703 c -0.0437,-8.9e-4 -0.0733,0.0104 -0.0899,0.0312 -1.40759,1.79371 -4.79945,8.85761 -4.55468,9.48633 0.88714,2.27881 15.81758,9.78455 27.99023,14.07031 l 5.71484,2.01172 0.17579,-1.92773 c -0.37647,-0.0432 -0.74955,-0.12785 -1.11524,-0.35547 -0.0546,-0.0172 -0.12574,-0.0414 -0.16406,-0.0508 -0.52556,-0.12737 -0.96555,-0.50648 -1.53516,-0.49805 -0.27859,-0.17499 -0.63635,-0.26189 -0.83593,-0.52344 -0.76723,-1.00539 -0.70736,-1.62565 -0.64844,-2.67969 -0.0325,-0.43717 -0.1686,-0.87481 -0.1582,-1.31445 0.0196,-0.82926 0.25863,-1.56691 0.80468,-2.19726 0.17171,-0.17814 0.32679,-0.37382 0.51367,-0.53516 0.32182,-1.02989 0.51842,-1.23877 2.00782,-1.84961 0.70289,-0.004 1.4067,-0.003 2.10937,0.0195 0.13551,-10e-4 0.27037,-0.0103 0.40625,-0.0176 0.55464,-0.48271 1.12946,-0.70507 1.65625,-0.72265 0.18986,-0.61004 -1.36,-1.45922 -3.6914,-1.83203 -1.65348,-0.2644 -3.98992,-0.91825 -5.19336,-1.45313 -2.47552,-1.10028 -10.4849,-4.02925 -15.61328,-5.70898 -1.88383,-0.61702 -4.37137,-1.82115 -5.52735,-2.67578 -1.01148,-0.74782 -1.94581,-1.27111 -2.25195,-1.27735 z m 6.80664,8.18945 -0.002,0.002 c 0.87412,0.10129 1.64804,0.49633 2.42968,0.86914 0.53667,0.25587 0.23599,0.0874 0.61914,0.31836 0.0682,0.0555 0.11786,0.0938 0.16407,0.13672 0.18301,0.0427 0.31138,0.1259 0.49804,0.24218 0.0291,0.0151 0.0527,0.0447 0.0859,0.0488 0.0246,0.003 -0.0786,-0.0566 -0.0566,-0.0449 0.1118,0.0586 0.21705,0.12778 0.32812,0.1875 0.009,0.004 -0.0278,-0.0272 -0.0195,-0.0234 0.15825,0.11377 0.18251,0.17942 0.14063,0.0899 0.22431,0.12396 0.45114,0.24015 0.6543,0.39843 0.077,0.0601 0.14439,0.13251 0.2207,0.19336 0.006,0.004 0.0178,-0.002 0.0254,0.002 0.0381,0.0189 0.0729,0.0441 0.10937,0.0664 0.0615,0.0488 0.1153,0.10951 0.1836,0.14844 0.0197,0.0113 -0.0533,-0.0639 -0.0312,-0.0605 0.0816,0.0113 0.1514,0.068 0.23047,0.0918 0.0385,0.0113 0.0804,0.002 0.11914,0.0137 0.33339,0.093 0.28782,0.099 0.59765,0.30274 0.0268,0.0189 0.10949,0.0687 0.0801,0.0547 0.01,0.006 0.0196,0.0117 0.0293,0.0176 0.027,0.0121 0.0347,0.005 0.0664,0.0215 0.0489,0.0257 0.18581,0.12216 0.13671,0.0957 -0.0693,-0.0357 -0.13632,-0.0768 -0.20312,-0.11719 -0.91631,-0.41008 0.7541,1.70399 -0.35547,1.21094 -0.066,-0.0294 -0.19721,-0.0864 -0.2793,-0.13086 -0.0891,-0.0448 -0.17342,-0.10063 -0.24804,-0.15234 0.008,-0.008 0.031,-0.012 0.0234,-0.0195 -0.11709,-0.0949 -0.29079,-0.0831 -0.43554,-0.125 -0.1951,-0.0567 -0.43204,-0.14683 -0.57617,-0.27344 -0.297,-0.18293 -0.54531,-0.42695 -0.85938,-0.58399 -0.0884,-0.0469 -0.17523,-0.0938 -0.26367,-0.14062 -0.01,-0.0113 -0.0203,-0.0217 -0.0312,-0.0293 -0.0295,-0.0223 -0.0835,-0.0479 -0.11524,-0.0684 -0.10076,-0.0379 -0.18218,-0.0817 -0.31054,-0.16211 0.0518,-0.0227 0.0616,-0.0275 0.0527,-0.0312 -0.53484,-0.14702 -0.24688,0.0301 -0.67187,-0.30664 -0.0106,-0.008 0.033,0.0231 0.0391,0.0117 -0.21007,-0.15005 -0.0174,-0.0183 -0.5,-0.25 -0.69489,-0.33222 -1.36945,-0.6917 -2.15039,-0.77148 -1.24353,-0.127 -0.96631,-1.37616 0.27539,-1.23243 z m 19.26172,7.42188 c -0.0248,0.0376 -0.055,0.0777 -0.0645,0.10352 -0.0437,0.12016 -0.12259,0.49736 -0.0859,0.375 0.0603,-0.20173 0.10201,-0.32028 0.15039,-0.47852 z"
         style="fill:#ffff00;fill-opacity:1;stroke:#000000;stroke-width:1.848189;stroke-linecap:butt;stroke-linejoin:round;stroke-miterlimit:4;stroke-dasharray:none;stroke-opacity:1;paint-order:markers fill stroke"
         transform="scale(0.26458333)"
         id="path4627"
         inkscape:connector-curvature="0" />
      <path
         transform="scale(0.26458333)"
         inkscape:connector-curvature="0"
         id="path4745"
         d="m 313.16674,438.80718 c -0.64821,-0.24219 -1.32878,-0.67791 -1.51238,-0.96825 -0.59014,-0.93324 -0.38826,-3.21709 0.36953,-4.18045 0.39285,-0.49944 0.71428,-1.11027 0.71428,-1.35741 0,-0.57985 0.81491,-0.8829 2.37412,-0.8829 0.68435,0 1.54669,-0.16185 1.91631,-0.35967 0.87178,-0.46656 2.25054,0.84622 2.89832,2.7596 0.25139,0.74254 0.58497,1.50275 0.7413,1.68935 0.41381,0.49396 0.34777,1.26786 -0.10819,1.26786 -0.21583,0 -0.84281,0.48214 -1.39329,1.07143 -0.59038,0.63201 -1.36321,1.07143 -1.88436,1.07143 -0.48592,0 -1.34555,0.0741 -1.91028,0.16469 -0.56473,0.0906 -1.55714,-0.0335 -2.20536,-0.27568 z"
         style="fill:#ff0000;fill-opacity:1;stroke:#000000;stroke-width:0.6600675;stroke-linecap:butt;stroke-linejoin:round;stroke-miterlimit:4;stroke-dasharray:none;stroke-opacity:1;paint-order:markers fill stroke" />
      <path
         inkscape:connector-curvature="0"
         id="path4591"
         d="m 74.744833,111.13011 c -0.03151,-0.44094 -0.06302,-0.88188 -0.09454,-1.32282 -0.0315,0 -0.07222,0.0223 -0.0945,0 -0.02228,-0.0223 0.02228,-0.0722 0,-0.0945 -0.02228,-0.0223 -0.07222,0.0223 -0.09449,0 -0.02228,-0.0223 0.02228,-0.0722 0,-0.0945 -0.04454,-0.0445 -0.144444,0.0446 -0.188986,0 -0.02228,-0.0223 0.01407,-0.0663 0,-0.0945 -0.196633,-0.39326 0.0065,0.10101 -0.18899,-0.0945 -0.02228,-0.0223 0,-0.063 0,-0.0945 -0.0315,0 -0.06632,0.0141 -0.09449,0 -0.03984,-0.0199 -0.05465,-0.0746 -0.0945,-0.0945 -0.05634,-0.0282 -0.144441,0.0445 -0.188986,0 -0.04455,-0.0446 0.04454,-0.14445 0,-0.18899 -0.02228,-0.0223 -0.06632,0.0141 -0.09449,0 -0.03984,-0.0199 -0.05465,-0.0746 -0.0945,-0.0945 -0.02817,-0.0141 -0.07222,0.0223 -0.09449,0 -0.02228,-0.0223 0.02228,-0.0722 0,-0.0945 -0.04454,-0.0445 -0.144444,0.0445 -0.188989,0 -0.02228,-0.0223 0.02228,-0.0722 0,-0.0945 -0.04725,-0.0472 -0.236233,0.0473 -0.28348,0 -0.02228,-0.0223 0,-0.063 0,-0.0945 -0.0315,0 -0.07222,0.0223 -0.0945,0 -0.02228,-0.0223 0.02228,-0.0722 0,-0.0945 -0.02273,-0.0227 -0.355237,0.0227 -0.377976,0 -0.02228,-0.0223 0.02228,-0.0722 0,-0.0945 -0.02228,-0.0223 -0.06299,0 -0.09449,0 -0.0315,0 -0.063,0 -0.09449,0 -0.157491,0 -0.314982,0 -0.472472,0 -0.063,0 -0.251984,0 -0.188987,0 0.063,0 0.188987,-0.063 0.188987,0 0,0.0704 -0.139184,0.0447 -0.188987,0.0945 -0.02228,0.0223 0.02228,0.0722 0,0.0945 -0.02228,0.0223 -0.07222,-0.0223 -0.0945,0 -0.02228,0.0223 0.02228,0.0722 0,0.0945 -0.02228,0.0223 -0.07222,-0.0223 -0.09449,0 -0.04454,0.0446 0.04454,0.14445 0,0.18899 -0.02228,0.0223 -0.07222,-0.0223 -0.09449,0 -0.02926,0.0293 0.02926,0.44321 0,0.47247 -0.02228,0.0223 -0.07222,-0.0223 -0.0945,0 -0.02228,0.0223 0,0.063 0,0.0945 0,0.0315 0,0.063 0,0.0945 0,0.22049 0,0.44097 0,0.66146 0,0.0426 -0.01437,0.25473 0,0.28348 0.196633,0.39326 -0.0065,-0.10101 0.188989,0.0945 0.02228,0.0223 -0.02228,0.0722 0,0.0945 0.02228,0.0223 0.07222,-0.0223 0.09449,0 0.02228,0.0223 -0.02228,0.0722 0,0.0945 0.02228,0.0223 0.07222,-0.0223 0.0945,0 0.04454,0.0445 -0.04454,0.14444 0,0.18898 0.04454,0.0446 0.144442,-0.0445 0.188987,0 0.02228,0.0223 -0.02228,0.0722 0,0.0945 0.04454,0.0445 0.144444,-0.0446 0.188989,0 0.02228,0.0223 0,0.063 0,0.0945 0.0315,0 0.07222,-0.0223 0.09449,0 0.02228,0.0223 -0.02228,0.0722 0,0.0945 0.04455,0.0446 0.144444,-0.0445 0.18899,0 0.02228,0.0223 -0.02228,0.0722 0,0.0945 0.04454,0.0445 0.144441,-0.0446 0.188986,0 0.02228,0.0223 -0.02228,0.0722 0,0.0945 0.04454,0.0446 0.144444,-0.0445 0.188989,0 0.02228,0.0223 -0.02228,0.0722 0,0.0945 0.02273,0.0227 0.355238,-0.0227 0.377976,0 0.02228,0.0223 -0.02228,0.0722 0,0.0945 0.04455,0.0446 0.144444,-0.0445 0.188987,0 0.02228,0.0223 -0.02228,0.0722 0,0.0945 0.02273,0.0227 0.35524,-0.0227 0.377978,0 0.02228,0.0223 -0.02228,0.0722 0,0.0945 0.04725,0.0472 0.236234,-0.0473 0.28348,0 0.02228,0.0223 -0.02228,0.0722 0,0.0945 0.02228,0.0223 0.063,0 0.0945,0 0.0315,0 0.063,0 0.09449,0 0.0315,0 0.063,0 0.09449,0 0.0315,0 0.07702,0.0262 0.0945,0 0.179898,-0.26986 0.315007,-0.56703 0.472511,-0.85054"
         style="fill:none;stroke:#000000;stroke-width:0.26458332px;stroke-linecap:butt;stroke-linejoin:miter;stroke-opacity:1" />
      <path
         transform="scale(0.26458333)"
         inkscape:connector-curvature="0"
         id="path4751"
         d="m 279.64763,422.5015 c -0.11016,-0.14922 -0.23656,-0.19553 -0.53368,-0.19553 -0.25365,0 -0.4445,-0.0552 -0.54762,-0.15828 -0.11905,-0.11905 -0.30213,-0.15828 -0.73863,-0.15828 -0.3192,0 -0.58036,-0.037 -0.58036,-0.0823 0,-0.0453 -0.24749,-0.20599 -0.54998,-0.35714 -0.42577,-0.21276 -0.66774,-0.27483 -1.07143,-0.27483 -0.28679,0 -0.52145,-0.0379 -0.52145,-0.0842 0,-0.0463 -0.49596,-0.32678 -1.10213,-0.62323 -0.60617,-0.29645 -1.1988,-0.63341 -1.31696,-0.74879 -0.11816,-0.11539 -0.48604,-0.34051 -0.81752,-0.50028 -0.33147,-0.15977 -0.60267,-0.34655 -0.60267,-0.41508 0,-0.14691 -1.18943,-1.37839 -1.33132,-1.37839 -0.0667,0 -0.0973,-0.53226 -0.0973,-1.69643 0,-1.57738 0.0125,-1.70896 0.17858,-1.875 0.1488,-0.14881 0.17857,-0.29761 0.17857,-0.89285 0,-0.59524 0.0298,-0.74405 0.17857,-0.89286 0.0982,-0.0982 0.17857,-0.25893 0.17857,-0.35714 0,-0.0982 0.16071,-0.33929 0.35714,-0.53572 0.19643,-0.19643 0.35715,-0.39087 0.35715,-0.43209 0,-0.16986 0.50253,-0.28219 1.26243,-0.28219 0.67242,0 0.84562,0.0299 1.03463,0.17857 0.16538,0.13009 0.36221,0.17857 0.72499,0.17857 0.46128,0 0.52495,0.0265 0.864,0.35923 0.29376,0.2883 0.43545,0.36152 0.71767,0.37083 0.1934,0.006 0.44745,0.0858 0.56457,0.17649 0.11711,0.0907 0.28164,0.16488 0.36562,0.16488 0.084,0 0.22542,0.0804 0.3143,0.17857 0.0889,0.0982 0.2496,0.17857 0.35714,0.17857 0.22316,0 0.49107,0.25685 0.49107,0.4708 0,0.0793 0.093,0.25241 0.20676,0.38461 0.16329,0.18984 0.28542,0.24037 0.58092,0.24037 0.32451,0 0.42427,0.0517 0.75175,0.38961 0.20767,0.21429 0.4262,0.38961 0.48563,0.38961 0.0594,0 0.16094,0.11049 0.22558,0.24554 0.0653,0.13637 0.23617,0.28523 0.3844,0.33482 0.34685,0.11604 0.61479,0.30937 0.85896,0.61978 0.17865,0.22712 0.21036,0.44261 0.34069,2.31532 l 0.1437,2.0649 -0.2258,0.23222 c -0.63183,0.64981 -0.89544,0.9766 -0.89544,1.11008 0,0.0811 -0.0804,0.24955 -0.17857,0.37441 -0.0982,0.12486 -0.17858,0.28557 -0.17858,0.35714 0,0.0716 -0.0804,0.23228 -0.17857,0.35714 -0.0982,0.12486 -0.17857,0.28187 -0.17857,0.34891 0,0.18932 -0.29624,0.13725 -0.45685,-0.0803 z"
         style="fill:#d38d5f;fill-opacity:1;stroke:#000000;stroke-width:0.16501687;stroke-linecap:butt;stroke-linejoin:round;stroke-miterlimit:4;stroke-dasharray:none;stroke-opacity:1;paint-order:markers fill stroke" />
    </g>
  </g>
</svg>
